<mxfile host="app.diagrams.net" modified="2022-01-12T08:25:24.371Z" agent="5.0 (Windows NT 10.0; Win64; x64) AppleWebKit/537.36 (KHTML, like Gecko) Chrome/97.0.4692.71 Safari/537.36" etag="q36QT-st_W91y-DN4pOt" version="16.2.4" type="github" pages="5">
  <diagram id="zhVzQE5vQu4MjfQcBVvA" name="第 1 页">
    <mxGraphModel dx="1038" dy="523" grid="1" gridSize="10" guides="1" tooltips="1" connect="1" arrows="1" fold="1" page="1" pageScale="1" pageWidth="827" pageHeight="1169" math="0" shadow="0">
      <root>
        <mxCell id="0" />
        <mxCell id="1" parent="0" />
        <mxCell id="5hrnSq1uhRpvgWIzdUAl-1" value="" style="endArrow=none;endFill=1;endSize=12;html=1;rounded=0;fontFamily=Helvetica;startArrow=none;fontStyle=1;align=center;" edge="1" parent="1">
          <mxGeometry width="160" relative="1" as="geometry">
            <mxPoint x="155" y="330" as="sourcePoint" />
            <mxPoint x="155" y="330" as="targetPoint" />
          </mxGeometry>
        </mxCell>
        <mxCell id="5hrnSq1uhRpvgWIzdUAl-2" value="&lt;font style=&quot;vertical-align: inherit&quot;&gt;&lt;font style=&quot;vertical-align: inherit&quot;&gt;&lt;font style=&quot;vertical-align: inherit&quot;&gt;&lt;font style=&quot;vertical-align: inherit&quot;&gt;&lt;font style=&quot;vertical-align: inherit&quot;&gt;&lt;font style=&quot;vertical-align: inherit&quot;&gt;&lt;font style=&quot;vertical-align: inherit&quot;&gt;&lt;font style=&quot;vertical-align: inherit&quot;&gt;&lt;font style=&quot;vertical-align: inherit&quot;&gt;&lt;font style=&quot;vertical-align: inherit&quot;&gt;&lt;font style=&quot;vertical-align: inherit&quot;&gt;&lt;font style=&quot;vertical-align: inherit&quot;&gt;&lt;font style=&quot;vertical-align: inherit&quot;&gt;&lt;font style=&quot;vertical-align: inherit&quot;&gt;1.1 完成议案创建&lt;/font&gt;&lt;/font&gt;&lt;/font&gt;&lt;/font&gt;&lt;/font&gt;&lt;/font&gt;&lt;/font&gt;&lt;/font&gt;&lt;/font&gt;&lt;/font&gt;&lt;/font&gt;&lt;/font&gt;&lt;/font&gt;&lt;/font&gt;" style="text;html=1;align=center;verticalAlign=middle;resizable=0;points=[];autosize=1;strokeColor=none;fillColor=none;" vertex="1" parent="1">
          <mxGeometry x="540" y="170" width="110" height="20" as="geometry" />
        </mxCell>
        <mxCell id="5hrnSq1uhRpvgWIzdUAl-3" value="&lt;font style=&quot;vertical-align: inherit&quot;&gt;&lt;font style=&quot;vertical-align: inherit&quot;&gt;&lt;font style=&quot;vertical-align: inherit&quot;&gt;&lt;font style=&quot;vertical-align: inherit&quot;&gt;&lt;font style=&quot;vertical-align: inherit&quot;&gt;&lt;font style=&quot;vertical-align: inherit&quot;&gt;&lt;font style=&quot;vertical-align: inherit&quot;&gt;&lt;font style=&quot;vertical-align: inherit&quot;&gt;技术支持前端&lt;/font&gt;&lt;/font&gt;&lt;/font&gt;&lt;/font&gt;&lt;/font&gt;&lt;/font&gt;&lt;/font&gt;&lt;/font&gt;" style="shape=umlLifeline;perimeter=lifelinePerimeter;whiteSpace=wrap;html=1;container=1;collapsible=0;recursiveResize=0;outlineConnect=0;" vertex="1" parent="1">
          <mxGeometry x="170" y="100" width="100" height="350" as="geometry" />
        </mxCell>
        <mxCell id="5hrnSq1uhRpvgWIzdUAl-4" value="" style="html=1;points=[];perimeter=orthogonalPerimeter;fontFamily=Helvetica;fontStyle=1;align=center;rounded=0;" vertex="1" parent="5hrnSq1uhRpvgWIzdUAl-3">
          <mxGeometry x="45" y="100" width="10" height="50" as="geometry" />
        </mxCell>
        <mxCell id="5hrnSq1uhRpvgWIzdUAl-5" value="" style="html=1;points=[];perimeter=orthogonalPerimeter;fontFamily=Helvetica;fontStyle=1;align=center;rounded=0;" vertex="1" parent="5hrnSq1uhRpvgWIzdUAl-3">
          <mxGeometry x="45" y="222" width="10" height="88" as="geometry" />
        </mxCell>
        <mxCell id="5hrnSq1uhRpvgWIzdUAl-6" value="&lt;font style=&quot;vertical-align: inherit&quot;&gt;&lt;font style=&quot;vertical-align: inherit&quot;&gt;&lt;font style=&quot;vertical-align: inherit&quot;&gt;&lt;font style=&quot;vertical-align: inherit&quot;&gt;&lt;font style=&quot;vertical-align: inherit&quot;&gt;&lt;font style=&quot;vertical-align: inherit&quot;&gt;&lt;font style=&quot;vertical-align: inherit&quot;&gt;&lt;font style=&quot;vertical-align: inherit&quot;&gt;&lt;font style=&quot;vertical-align: inherit&quot;&gt;&lt;font style=&quot;vertical-align: inherit&quot;&gt;&lt;font style=&quot;vertical-align: inherit&quot;&gt;&lt;font style=&quot;vertical-align: inherit&quot;&gt;&lt;font style=&quot;vertical-align: inherit&quot;&gt;&lt;font style=&quot;vertical-align: inherit&quot;&gt;&lt;font style=&quot;vertical-align: inherit&quot;&gt;&lt;font style=&quot;vertical-align: inherit&quot;&gt;&lt;font style=&quot;vertical-align: inherit&quot;&gt;&lt;font style=&quot;vertical-align: inherit&quot;&gt;技术支持模块&lt;/font&gt;&lt;/font&gt;&lt;/font&gt;&lt;/font&gt;&lt;/font&gt;&lt;/font&gt;&lt;/font&gt;&lt;/font&gt;&lt;/font&gt;&lt;/font&gt;&lt;/font&gt;&lt;/font&gt;&lt;/font&gt;&lt;/font&gt;&lt;/font&gt;&lt;/font&gt;&lt;/font&gt;&lt;/font&gt;" style="shape=umlLifeline;perimeter=lifelinePerimeter;whiteSpace=wrap;html=1;container=1;collapsible=0;recursiveResize=0;outlineConnect=0;" vertex="1" parent="1">
          <mxGeometry x="480" y="100" width="100" height="340" as="geometry" />
        </mxCell>
        <mxCell id="5hrnSq1uhRpvgWIzdUAl-7" value="" style="html=1;points=[];perimeter=orthogonalPerimeter;fontFamily=Helvetica;fontStyle=1;align=center;rounded=0;" vertex="1" parent="5hrnSq1uhRpvgWIzdUAl-6">
          <mxGeometry x="45" y="100" width="10" height="50" as="geometry" />
        </mxCell>
        <mxCell id="5hrnSq1uhRpvgWIzdUAl-8" value="" style="html=1;points=[];perimeter=orthogonalPerimeter;" vertex="1" parent="5hrnSq1uhRpvgWIzdUAl-6">
          <mxGeometry x="55" y="120" width="10" height="10" as="geometry" />
        </mxCell>
        <mxCell id="5hrnSq1uhRpvgWIzdUAl-9" value="" style="edgeStyle=segmentEdgeStyle;endArrow=classic;html=1;rounded=0;exitX=0.9;exitY=0;exitDx=0;exitDy=0;exitPerimeter=0;entryX=0.9;entryY=0;entryDx=0;entryDy=0;entryPerimeter=0;" edge="1" parent="5hrnSq1uhRpvgWIzdUAl-6">
          <mxGeometry width="50" height="50" relative="1" as="geometry">
            <mxPoint x="54.00000000000023" y="100" as="sourcePoint" />
            <mxPoint x="64.00000000000023" y="120" as="targetPoint" />
            <Array as="points">
              <mxPoint x="100" y="100" />
              <mxPoint x="100" y="120" />
            </Array>
          </mxGeometry>
        </mxCell>
        <mxCell id="5hrnSq1uhRpvgWIzdUAl-10" value="" style="html=1;points=[];perimeter=orthogonalPerimeter;fontFamily=Helvetica;fontStyle=1;align=center;rounded=0;" vertex="1" parent="5hrnSq1uhRpvgWIzdUAl-6">
          <mxGeometry x="45" y="221" width="10" height="89" as="geometry" />
        </mxCell>
        <mxCell id="5hrnSq1uhRpvgWIzdUAl-11" value="" style="edgeStyle=segmentEdgeStyle;endArrow=classic;html=1;rounded=0;exitX=0.9;exitY=0;exitDx=0;exitDy=0;exitPerimeter=0;" edge="1" parent="5hrnSq1uhRpvgWIzdUAl-6">
          <mxGeometry width="50" height="50" relative="1" as="geometry">
            <mxPoint x="53.00000000000023" y="221" as="sourcePoint" />
            <mxPoint x="63" y="241" as="targetPoint" />
            <Array as="points">
              <mxPoint x="99" y="221" />
              <mxPoint x="99" y="241" />
            </Array>
          </mxGeometry>
        </mxCell>
        <mxCell id="5hrnSq1uhRpvgWIzdUAl-12" value="" style="html=1;points=[];perimeter=orthogonalPerimeter;" vertex="1" parent="5hrnSq1uhRpvgWIzdUAl-6">
          <mxGeometry x="55" y="241" width="10" height="10" as="geometry" />
        </mxCell>
        <mxCell id="5hrnSq1uhRpvgWIzdUAl-13" value="" style="edgeStyle=segmentEdgeStyle;endArrow=classic;html=1;rounded=0;exitX=0.9;exitY=0;exitDx=0;exitDy=0;exitPerimeter=0;" edge="1" parent="5hrnSq1uhRpvgWIzdUAl-6">
          <mxGeometry width="50" height="50" relative="1" as="geometry">
            <mxPoint x="54.00000000000023" y="270" as="sourcePoint" />
            <mxPoint x="64" y="290" as="targetPoint" />
            <Array as="points">
              <mxPoint x="100" y="270" />
              <mxPoint x="100" y="290" />
            </Array>
          </mxGeometry>
        </mxCell>
        <mxCell id="5hrnSq1uhRpvgWIzdUAl-14" value="" style="html=1;points=[];perimeter=orthogonalPerimeter;" vertex="1" parent="5hrnSq1uhRpvgWIzdUAl-6">
          <mxGeometry x="55" y="290" width="10" height="10" as="geometry" />
        </mxCell>
        <mxCell id="5hrnSq1uhRpvgWIzdUAl-15" value="" style="endArrow=none;endFill=1;endSize=12;html=1;rounded=0;fontFamily=Helvetica;startArrow=none;fontStyle=1;align=center;" edge="1" parent="1">
          <mxGeometry width="160" relative="1" as="geometry">
            <mxPoint x="695" y="860" as="sourcePoint" />
            <mxPoint x="695" y="860" as="targetPoint" />
          </mxGeometry>
        </mxCell>
        <mxCell id="5hrnSq1uhRpvgWIzdUAl-16" value="" style="endArrow=none;endFill=1;endSize=12;html=1;rounded=0;fontFamily=Helvetica;fontStyle=1;align=center;startArrow=none;" edge="1" parent="1">
          <mxGeometry width="160" relative="1" as="geometry">
            <mxPoint x="859.5" y="850" as="sourcePoint" />
            <mxPoint x="856.2499999999999" y="850" as="targetPoint" />
            <Array as="points" />
          </mxGeometry>
        </mxCell>
        <mxCell id="5hrnSq1uhRpvgWIzdUAl-17" value="" style="html=1;verticalAlign=bottom;endArrow=block;rounded=0;entryX=0.086;entryY=0.007;entryDx=0;entryDy=0;entryPerimeter=0;" edge="1" parent="1" target="5hrnSq1uhRpvgWIzdUAl-7">
          <mxGeometry width="80" relative="1" as="geometry">
            <mxPoint x="220" y="200.25" as="sourcePoint" />
            <mxPoint x="520" y="200" as="targetPoint" />
            <Array as="points">
              <mxPoint x="410.5" y="199.75" />
            </Array>
          </mxGeometry>
        </mxCell>
        <mxCell id="5hrnSq1uhRpvgWIzdUAl-18" value="" style="html=1;verticalAlign=bottom;endArrow=open;dashed=1;endSize=8;rounded=0;exitX=0.2;exitY=1;exitDx=0;exitDy=0;exitPerimeter=0;" edge="1" parent="1">
          <mxGeometry relative="1" as="geometry">
            <mxPoint x="527.56" y="250.16000000000003" as="sourcePoint" />
            <mxPoint x="225" y="250" as="targetPoint" />
            <Array as="points">
              <mxPoint x="270.05999999999995" y="250.16000000000003" />
            </Array>
          </mxGeometry>
        </mxCell>
        <mxCell id="5hrnSq1uhRpvgWIzdUAl-19" value="1.EDER创建议案" style="text;html=1;align=center;verticalAlign=middle;resizable=0;points=[];autosize=1;strokeColor=none;fillColor=none;" vertex="1" parent="1">
          <mxGeometry x="304" y="180" width="110" height="20" as="geometry" />
        </mxCell>
        <mxCell id="5hrnSq1uhRpvgWIzdUAl-20" value="&lt;font style=&quot;vertical-align: inherit&quot;&gt;&lt;font style=&quot;vertical-align: inherit&quot;&gt;&lt;font style=&quot;vertical-align: inherit&quot;&gt;&lt;font style=&quot;vertical-align: inherit&quot;&gt;&lt;font style=&quot;vertical-align: inherit&quot;&gt;&lt;font style=&quot;vertical-align: inherit&quot;&gt;&lt;font style=&quot;vertical-align: inherit&quot;&gt;&lt;font style=&quot;vertical-align: inherit&quot;&gt;&lt;font style=&quot;vertical-align: inherit&quot;&gt;&lt;font style=&quot;vertical-align: inherit&quot;&gt;&lt;font style=&quot;vertical-align: inherit&quot;&gt;&lt;font style=&quot;vertical-align: inherit&quot;&gt;&lt;font style=&quot;vertical-align: inherit&quot;&gt;&lt;font style=&quot;vertical-align: inherit&quot;&gt;&lt;font style=&quot;vertical-align: inherit&quot;&gt;&lt;font style=&quot;vertical-align: inherit&quot;&gt;议案时序图&lt;/font&gt;&lt;/font&gt;&lt;/font&gt;&lt;/font&gt;&lt;/font&gt;&lt;/font&gt;&lt;/font&gt;&lt;/font&gt;&lt;/font&gt;&lt;/font&gt;&lt;/font&gt;&lt;/font&gt;&lt;/font&gt;&lt;/font&gt;&lt;/font&gt;&lt;/font&gt;" style="shape=umlFrame;whiteSpace=wrap;html=1;width=140;height=30;" vertex="1" parent="1">
          <mxGeometry x="50" y="10" width="810" height="630" as="geometry" />
        </mxCell>
        <mxCell id="5hrnSq1uhRpvgWIzdUAl-21" value="" style="html=1;verticalAlign=bottom;endArrow=block;rounded=0;entryX=0.086;entryY=0.007;entryDx=0;entryDy=0;entryPerimeter=0;" edge="1" parent="1">
          <mxGeometry width="80" relative="1" as="geometry">
            <mxPoint x="220.07" y="321.5" as="sourcePoint" />
            <mxPoint x="525.93" y="321.6" as="targetPoint" />
            <Array as="points">
              <mxPoint x="410.57" y="321" />
            </Array>
          </mxGeometry>
        </mxCell>
        <mxCell id="5hrnSq1uhRpvgWIzdUAl-22" value="2.ERER制作FTR" style="text;html=1;align=center;verticalAlign=middle;resizable=0;points=[];autosize=1;strokeColor=none;fillColor=none;" vertex="1" parent="1">
          <mxGeometry x="300" y="300" width="110" height="20" as="geometry" />
        </mxCell>
        <mxCell id="5hrnSq1uhRpvgWIzdUAl-23" value="&lt;font style=&quot;vertical-align: inherit&quot;&gt;&lt;font style=&quot;vertical-align: inherit&quot;&gt;&lt;font style=&quot;vertical-align: inherit&quot;&gt;&lt;font style=&quot;vertical-align: inherit&quot;&gt;&lt;font style=&quot;vertical-align: inherit&quot;&gt;&lt;font style=&quot;vertical-align: inherit&quot;&gt;&lt;font style=&quot;vertical-align: inherit&quot;&gt;&lt;font style=&quot;vertical-align: inherit&quot;&gt;&lt;font style=&quot;vertical-align: inherit&quot;&gt;&lt;font style=&quot;vertical-align: inherit&quot;&gt;&lt;font style=&quot;vertical-align: inherit&quot;&gt;&lt;font style=&quot;vertical-align: inherit&quot;&gt;&lt;font style=&quot;vertical-align: inherit&quot;&gt;&lt;font style=&quot;vertical-align: inherit&quot;&gt;2.1制造FTR&amp;nbsp;&lt;/font&gt;&lt;/font&gt;&lt;/font&gt;&lt;/font&gt;&lt;/font&gt;&lt;/font&gt;&lt;/font&gt;&lt;/font&gt;&lt;/font&gt;&lt;/font&gt;&lt;/font&gt;&lt;/font&gt;&lt;/font&gt;&lt;/font&gt;" style="text;html=1;align=center;verticalAlign=middle;resizable=0;points=[];autosize=1;strokeColor=none;fillColor=none;" vertex="1" parent="1">
          <mxGeometry x="565" y="300" width="80" height="20" as="geometry" />
        </mxCell>
        <mxCell id="5hrnSq1uhRpvgWIzdUAl-24" value="2.2推送至事件总线MQ,下发到FTR" style="text;html=1;align=center;verticalAlign=middle;resizable=0;points=[];autosize=1;strokeColor=none;fillColor=none;" vertex="1" parent="1">
          <mxGeometry x="550" y="350" width="200" height="20" as="geometry" />
        </mxCell>
      </root>
    </mxGraphModel>
  </diagram>
  <diagram name="事件设计" id="Gd5Hn6-OuL8o-vAyIT2U">
    <mxGraphModel dx="1422" dy="706" grid="1" gridSize="10" guides="1" tooltips="1" connect="1" arrows="1" fold="1" page="1" pageScale="1" pageWidth="1169" pageHeight="1654" math="0" shadow="0">
      <root>
        <mxCell id="REWmXZ9bRUmOgM38EWwb-0" />
        <mxCell id="REWmXZ9bRUmOgM38EWwb-1" parent="REWmXZ9bRUmOgM38EWwb-0" />
        <mxCell id="REWmXZ9bRUmOgM38EWwb-4" value="" style="html=1;shadow=0;dashed=1;shape=mxgraph.bootstrap.rrect;rSize=5;strokeWidth=1;whiteSpace=wrap;align=center;verticalAlign=middle;spacingLeft=0;fontStyle=0;fontSize=16;spacing=5;opacity=70;fillColor=#AADA90;" parent="REWmXZ9bRUmOgM38EWwb-1" vertex="1">
          <mxGeometry x="140" y="240" width="400" height="220" as="geometry" />
        </mxCell>
        <mxCell id="REWmXZ9bRUmOgM38EWwb-6" value="&lt;font style=&quot;vertical-align: inherit&quot;&gt;&lt;font style=&quot;vertical-align: inherit&quot;&gt;已创建&lt;/font&gt;&lt;/font&gt;" style="whiteSpace=wrap;html=1;aspect=fixed;" parent="REWmXZ9bRUmOgM38EWwb-1" vertex="1">
          <mxGeometry x="300" y="330" width="80" height="80" as="geometry" />
        </mxCell>
        <mxCell id="REWmXZ9bRUmOgM38EWwb-7" value="议案&lt;br&gt;状态迁移" style="text;html=1;align=center;verticalAlign=middle;resizable=0;points=[];autosize=1;strokeColor=none;fillColor=none;" parent="REWmXZ9bRUmOgM38EWwb-1" vertex="1">
          <mxGeometry x="150" y="250" width="60" height="30" as="geometry" />
        </mxCell>
        <mxCell id="5PGuIjg0WRSpgMR1tHV1-0" value="" style="endArrow=block;endSize=16;endFill=0;html=1;rounded=0;" edge="1" parent="REWmXZ9bRUmOgM38EWwb-1">
          <mxGeometry x="-1" y="-200" width="160" relative="1" as="geometry">
            <mxPoint x="140" y="364.5" as="sourcePoint" />
            <mxPoint x="300" y="364.5" as="targetPoint" />
            <Array as="points">
              <mxPoint x="210" y="365" />
            </Array>
            <mxPoint x="-200" y="-190" as="offset" />
          </mxGeometry>
        </mxCell>
        <mxCell id="5PGuIjg0WRSpgMR1tHV1-1" value="创建" style="edgeLabel;html=1;align=center;verticalAlign=middle;resizable=0;points=[];labelBackgroundColor=#FFFFFF;" vertex="1" connectable="0" parent="5PGuIjg0WRSpgMR1tHV1-0">
          <mxGeometry x="-0.2375" y="3" relative="1" as="geometry">
            <mxPoint y="1" as="offset" />
          </mxGeometry>
        </mxCell>
      </root>
    </mxGraphModel>
  </diagram>
  <diagram name="行为设计" id="dV7jjwV2FGhVmy1LsFRs">
    <mxGraphModel dx="1422" dy="2360" grid="1" gridSize="10" guides="1" tooltips="1" connect="1" arrows="1" fold="1" page="1" pageScale="1" pageWidth="1169" pageHeight="1654" math="0" shadow="0">
      <root>
        <mxCell id="eq4__YPAV8dtgDB64bbe-0" />
        <mxCell id="eq4__YPAV8dtgDB64bbe-1" parent="eq4__YPAV8dtgDB64bbe-0" />
        <mxCell id="eq4__YPAV8dtgDB64bbe-2" value="" style="endArrow=none;endFill=1;endSize=12;html=1;rounded=0;fontFamily=Helvetica;startArrow=none;fontStyle=1;align=center;" parent="eq4__YPAV8dtgDB64bbe-1" edge="1">
          <mxGeometry width="160" relative="1" as="geometry">
            <mxPoint x="165" y="340" as="sourcePoint" />
            <mxPoint x="165" y="340" as="targetPoint" />
          </mxGeometry>
        </mxCell>
        <mxCell id="eq4__YPAV8dtgDB64bbe-3" value="&lt;font style=&quot;vertical-align: inherit&quot;&gt;&lt;font style=&quot;vertical-align: inherit&quot;&gt;&lt;font style=&quot;vertical-align: inherit&quot;&gt;&lt;font style=&quot;vertical-align: inherit&quot;&gt;&lt;font style=&quot;vertical-align: inherit&quot;&gt;&lt;font style=&quot;vertical-align: inherit&quot;&gt;&lt;font style=&quot;vertical-align: inherit&quot;&gt;&lt;font style=&quot;vertical-align: inherit&quot;&gt;&lt;font style=&quot;vertical-align: inherit&quot;&gt;&lt;font style=&quot;vertical-align: inherit&quot;&gt;&lt;font style=&quot;vertical-align: inherit&quot;&gt;&lt;font style=&quot;vertical-align: inherit&quot;&gt;技术支持前端&lt;/font&gt;&lt;/font&gt;&lt;/font&gt;&lt;/font&gt;&lt;/font&gt;&lt;/font&gt;&lt;/font&gt;&lt;/font&gt;&lt;/font&gt;&lt;/font&gt;&lt;/font&gt;&lt;/font&gt;" style="shape=umlLifeline;perimeter=lifelinePerimeter;whiteSpace=wrap;html=1;container=1;collapsible=0;recursiveResize=0;outlineConnect=0;" parent="eq4__YPAV8dtgDB64bbe-1" vertex="1">
          <mxGeometry x="50" y="67.5" width="100" height="462.5" as="geometry" />
        </mxCell>
        <mxCell id="eq4__YPAV8dtgDB64bbe-4" value="" style="html=1;points=[];perimeter=orthogonalPerimeter;fontFamily=Helvetica;fontStyle=1;align=center;rounded=0;" parent="eq4__YPAV8dtgDB64bbe-3" vertex="1">
          <mxGeometry x="45" y="132.5" width="10" height="257.5" as="geometry" />
        </mxCell>
        <mxCell id="eq4__YPAV8dtgDB64bbe-5" style="edgeStyle=orthogonalEdgeStyle;rounded=0;orthogonalLoop=1;jettySize=auto;html=1;exitX=0.5;exitY=1;exitDx=0;exitDy=0;exitPerimeter=0;" parent="eq4__YPAV8dtgDB64bbe-1" edge="1">
          <mxGeometry relative="1" as="geometry">
            <mxPoint x="459" y="325" as="sourcePoint" />
            <mxPoint x="459" y="325" as="targetPoint" />
          </mxGeometry>
        </mxCell>
        <mxCell id="eq4__YPAV8dtgDB64bbe-6" value="&lt;font style=&quot;vertical-align: inherit&quot;&gt;&lt;font style=&quot;vertical-align: inherit&quot;&gt;&lt;font style=&quot;vertical-align: inherit&quot;&gt;&lt;font style=&quot;vertical-align: inherit&quot;&gt;&lt;font style=&quot;vertical-align: inherit&quot;&gt;&lt;font style=&quot;vertical-align: inherit&quot;&gt;DMS/PC-BEFF服务&lt;/font&gt;&lt;/font&gt;&lt;/font&gt;&lt;/font&gt;&lt;/font&gt;&lt;/font&gt;" style="shape=umlLifeline;perimeter=lifelinePerimeter;whiteSpace=wrap;html=1;container=1;collapsible=0;recursiveResize=0;outlineConnect=0;" parent="eq4__YPAV8dtgDB64bbe-1" vertex="1">
          <mxGeometry x="230" y="67.5" width="110" height="472.5" as="geometry" />
        </mxCell>
        <mxCell id="eq4__YPAV8dtgDB64bbe-7" value="" style="html=1;points=[];perimeter=orthogonalPerimeter;fontFamily=Helvetica;fontStyle=1;align=center;rounded=0;" parent="eq4__YPAV8dtgDB64bbe-6" vertex="1">
          <mxGeometry x="50" y="130" width="10" height="230" as="geometry" />
        </mxCell>
        <mxCell id="eq4__YPAV8dtgDB64bbe-8" value="" style="html=1;verticalAlign=bottom;endArrow=open;dashed=1;endSize=8;rounded=0;entryX=0.895;entryY=0.885;entryDx=0;entryDy=0;entryPerimeter=0;" parent="eq4__YPAV8dtgDB64bbe-6" target="eq4__YPAV8dtgDB64bbe-4" edge="1">
          <mxGeometry relative="1" as="geometry">
            <mxPoint x="50" y="360" as="sourcePoint" />
            <mxPoint x="-120" y="360" as="targetPoint" />
          </mxGeometry>
        </mxCell>
        <mxCell id="eq4__YPAV8dtgDB64bbe-9" value="技术支持聚合服务" style="shape=umlLifeline;perimeter=lifelinePerimeter;whiteSpace=wrap;html=1;container=1;collapsible=0;recursiveResize=0;outlineConnect=0;" parent="eq4__YPAV8dtgDB64bbe-1" vertex="1">
          <mxGeometry x="410" y="67.5" width="100" height="472.5" as="geometry" />
        </mxCell>
        <mxCell id="eq4__YPAV8dtgDB64bbe-10" value="" style="html=1;verticalAlign=bottom;endArrow=block;rounded=0;" parent="eq4__YPAV8dtgDB64bbe-9" edge="1">
          <mxGeometry width="80" relative="1" as="geometry">
            <mxPoint x="-120" y="170" as="sourcePoint" />
            <mxPoint x="46.5" y="170" as="targetPoint" />
            <Array as="points">
              <mxPoint x="46.5" y="170" />
            </Array>
          </mxGeometry>
        </mxCell>
        <mxCell id="eq4__YPAV8dtgDB64bbe-11" value="" style="html=1;points=[];perimeter=orthogonalPerimeter;fontFamily=Helvetica;fontStyle=1;align=center;rounded=0;" parent="eq4__YPAV8dtgDB64bbe-9" vertex="1">
          <mxGeometry x="45" y="170" width="10" height="160" as="geometry" />
        </mxCell>
        <mxCell id="eq4__YPAV8dtgDB64bbe-12" value="" style="html=1;verticalAlign=bottom;endArrow=open;dashed=1;endSize=8;rounded=0;" parent="eq4__YPAV8dtgDB64bbe-9" edge="1">
          <mxGeometry relative="1" as="geometry">
            <mxPoint x="45" y="330" as="sourcePoint" />
            <mxPoint x="-120" y="330" as="targetPoint" />
          </mxGeometry>
        </mxCell>
        <mxCell id="0uGdp_Fej39VKrecXhvW-0" value="" style="edgeStyle=segmentEdgeStyle;endArrow=classic;html=1;rounded=0;exitX=0.9;exitY=0;exitDx=0;exitDy=0;exitPerimeter=0;" edge="1" parent="eq4__YPAV8dtgDB64bbe-9">
          <mxGeometry width="50" height="50" relative="1" as="geometry">
            <mxPoint x="55.00000000000023" y="170" as="sourcePoint" />
            <mxPoint x="65" y="190" as="targetPoint" />
            <Array as="points">
              <mxPoint x="101" y="170" />
              <mxPoint x="101" y="190" />
            </Array>
          </mxGeometry>
        </mxCell>
        <mxCell id="-mWoxHhL3KS57l9GPQiD-0" value="" style="html=1;points=[];perimeter=orthogonalPerimeter;" vertex="1" parent="eq4__YPAV8dtgDB64bbe-9">
          <mxGeometry x="55" y="190" width="10" height="12.5" as="geometry" />
        </mxCell>
        <mxCell id="eq4__YPAV8dtgDB64bbe-13" value="&lt;font style=&quot;vertical-align: inherit&quot;&gt;&lt;font style=&quot;vertical-align: inherit&quot;&gt;&lt;font style=&quot;vertical-align: inherit&quot;&gt;&lt;font style=&quot;vertical-align: inherit&quot;&gt;质量反馈跟踪原子服务&lt;/font&gt;&lt;/font&gt;&lt;/font&gt;&lt;/font&gt;" style="shape=umlLifeline;perimeter=lifelinePerimeter;whiteSpace=wrap;html=1;container=1;collapsible=0;recursiveResize=0;outlineConnect=0;" parent="eq4__YPAV8dtgDB64bbe-1" vertex="1">
          <mxGeometry x="590" y="67.5" width="100" height="472.5" as="geometry" />
        </mxCell>
        <mxCell id="eq4__YPAV8dtgDB64bbe-14" value="" style="html=1;points=[];perimeter=orthogonalPerimeter;fontFamily=Helvetica;fontStyle=1;align=center;rounded=0;" parent="eq4__YPAV8dtgDB64bbe-13" vertex="1">
          <mxGeometry x="45" y="232.5" width="10" height="77.5" as="geometry" />
        </mxCell>
        <mxCell id="eq4__YPAV8dtgDB64bbe-15" value="" style="edgeStyle=segmentEdgeStyle;endArrow=classic;html=1;rounded=0;exitX=0.9;exitY=0;exitDx=0;exitDy=0;exitPerimeter=0;entryX=0.9;entryY=0;entryDx=0;entryDy=0;entryPerimeter=0;" parent="eq4__YPAV8dtgDB64bbe-13" edge="1">
          <mxGeometry width="50" height="50" relative="1" as="geometry">
            <mxPoint x="55.00000000000003" y="232.5" as="sourcePoint" />
            <mxPoint x="65.00000000000003" y="252.5" as="targetPoint" />
            <Array as="points">
              <mxPoint x="101.00000000000003" y="232.5" />
              <mxPoint x="101.00000000000003" y="252.5" />
            </Array>
          </mxGeometry>
        </mxCell>
        <mxCell id="eq4__YPAV8dtgDB64bbe-16" value="" style="html=1;points=[];perimeter=orthogonalPerimeter;" parent="eq4__YPAV8dtgDB64bbe-13" vertex="1">
          <mxGeometry x="55" y="252.5" width="10" height="27.5" as="geometry" />
        </mxCell>
        <mxCell id="eq4__YPAV8dtgDB64bbe-17" value="" style="html=1;verticalAlign=bottom;endArrow=open;dashed=1;endSize=8;rounded=0;entryX=1;entryY=0.861;entryDx=0;entryDy=0;entryPerimeter=0;" parent="eq4__YPAV8dtgDB64bbe-13" target="eq4__YPAV8dtgDB64bbe-11" edge="1">
          <mxGeometry relative="1" as="geometry">
            <mxPoint x="45" y="310" as="sourcePoint" />
            <mxPoint x="-120" y="310.5" as="targetPoint" />
          </mxGeometry>
        </mxCell>
        <mxCell id="eq4__YPAV8dtgDB64bbe-18" value="" style="html=1;verticalAlign=bottom;endArrow=block;rounded=0;exitX=0.5;exitY=0;exitDx=0;exitDy=0;exitPerimeter=0;" parent="eq4__YPAV8dtgDB64bbe-1" source="eq4__YPAV8dtgDB64bbe-4" edge="1">
          <mxGeometry width="80" relative="1" as="geometry">
            <mxPoint x="110" y="200" as="sourcePoint" />
            <mxPoint x="280" y="200" as="targetPoint" />
            <Array as="points">
              <mxPoint x="270" y="200" />
            </Array>
          </mxGeometry>
        </mxCell>
        <mxCell id="eq4__YPAV8dtgDB64bbe-19" value="&lt;font style=&quot;vertical-align: inherit&quot;&gt;&lt;font style=&quot;vertical-align: inherit&quot;&gt;&amp;nbsp; &amp;nbsp; &amp;nbsp; &amp;nbsp; &amp;nbsp; &amp;nbsp;1.EDER新建议案()&lt;/font&gt;&lt;/font&gt;" style="text;html=1;align=center;verticalAlign=middle;resizable=0;points=[];autosize=1;strokeColor=none;fillColor=none;" parent="eq4__YPAV8dtgDB64bbe-1" vertex="1">
          <mxGeometry x="100" y="170" width="150" height="20" as="geometry" />
        </mxCell>
        <mxCell id="eq4__YPAV8dtgDB64bbe-20" value="&lt;font style=&quot;vertical-align: inherit&quot;&gt;&lt;font style=&quot;vertical-align: inherit&quot;&gt;&lt;font style=&quot;vertical-align: inherit&quot;&gt;&lt;font style=&quot;vertical-align: inherit&quot;&gt;&lt;font style=&quot;vertical-align: inherit&quot;&gt;&lt;font style=&quot;vertical-align: inherit&quot;&gt;&lt;font style=&quot;vertical-align: inherit&quot;&gt;&lt;font style=&quot;vertical-align: inherit&quot;&gt;&lt;font style=&quot;vertical-align: inherit&quot;&gt;&lt;font style=&quot;vertical-align: inherit&quot;&gt;1.1.2.1 保存议案()&lt;/font&gt;&lt;/font&gt;&lt;/font&gt;&lt;/font&gt;&lt;/font&gt;&lt;/font&gt;&lt;/font&gt;&lt;/font&gt;&lt;/font&gt;&lt;/font&gt;" style="text;html=1;align=center;verticalAlign=middle;resizable=0;points=[];autosize=1;strokeColor=none;fillColor=none;" parent="eq4__YPAV8dtgDB64bbe-1" vertex="1">
          <mxGeometry x="660" y="280" width="110" height="20" as="geometry" />
        </mxCell>
        <mxCell id="eq4__YPAV8dtgDB64bbe-21" value="" style="html=1;verticalAlign=bottom;endArrow=block;rounded=0;entryX=-0.01;entryY=-0.004;entryDx=0;entryDy=0;entryPerimeter=0;exitX=0.96;exitY=0.376;exitDx=0;exitDy=0;exitPerimeter=0;" parent="eq4__YPAV8dtgDB64bbe-1" source="eq4__YPAV8dtgDB64bbe-11" target="eq4__YPAV8dtgDB64bbe-14" edge="1">
          <mxGeometry width="80" relative="1" as="geometry">
            <mxPoint x="470" y="300" as="sourcePoint" />
            <mxPoint x="630" y="250" as="targetPoint" />
            <Array as="points" />
          </mxGeometry>
        </mxCell>
        <mxCell id="eq4__YPAV8dtgDB64bbe-22" value="&lt;font style=&quot;vertical-align: inherit&quot;&gt;&lt;font style=&quot;vertical-align: inherit&quot;&gt;&lt;font style=&quot;vertical-align: inherit&quot;&gt;&lt;font style=&quot;vertical-align: inherit&quot;&gt;1.1 调用议案聚合创建议案()&lt;/font&gt;&lt;/font&gt;&lt;/font&gt;&lt;/font&gt;" style="text;html=1;align=center;verticalAlign=middle;resizable=0;points=[];autosize=1;strokeColor=none;fillColor=none;" parent="eq4__YPAV8dtgDB64bbe-1" vertex="1">
          <mxGeometry x="285" y="220" width="160" height="20" as="geometry" />
        </mxCell>
        <mxCell id="eq4__YPAV8dtgDB64bbe-23" value="&lt;font style=&quot;vertical-align: inherit&quot;&gt;&lt;font style=&quot;vertical-align: inherit&quot;&gt;&lt;font style=&quot;vertical-align: inherit&quot;&gt;&lt;font style=&quot;vertical-align: inherit&quot;&gt;1.1.2 创建议案()&lt;/font&gt;&lt;/font&gt;&lt;/font&gt;&lt;/font&gt;" style="text;html=1;align=center;verticalAlign=middle;resizable=0;points=[];autosize=1;strokeColor=none;fillColor=none;" parent="eq4__YPAV8dtgDB64bbe-1" vertex="1">
          <mxGeometry x="500" y="280" width="100" height="20" as="geometry" />
        </mxCell>
        <mxCell id="eq4__YPAV8dtgDB64bbe-24" value="&lt;font style=&quot;vertical-align: inherit&quot;&gt;&lt;font style=&quot;vertical-align: inherit&quot;&gt;&lt;font style=&quot;vertical-align: inherit&quot;&gt;&lt;font style=&quot;vertical-align: inherit&quot;&gt;&lt;font style=&quot;vertical-align: inherit&quot;&gt;&lt;font style=&quot;vertical-align: inherit&quot;&gt;&lt;font style=&quot;vertical-align: inherit&quot;&gt;&lt;font style=&quot;vertical-align: inherit&quot;&gt;&lt;font style=&quot;vertical-align: inherit&quot;&gt;&lt;font style=&quot;vertical-align: inherit&quot;&gt;&lt;font style=&quot;vertical-align: inherit&quot;&gt;&lt;font style=&quot;vertical-align: inherit&quot;&gt;&lt;font style=&quot;vertical-align: inherit&quot;&gt;&lt;font style=&quot;vertical-align: inherit&quot;&gt;&lt;font style=&quot;vertical-align: inherit&quot;&gt;&lt;font style=&quot;vertical-align: inherit&quot;&gt;议案行为设计图&lt;/font&gt;&lt;/font&gt;&lt;/font&gt;&lt;/font&gt;&lt;/font&gt;&lt;/font&gt;&lt;/font&gt;&lt;/font&gt;&lt;/font&gt;&lt;/font&gt;&lt;/font&gt;&lt;/font&gt;&lt;/font&gt;&lt;/font&gt;&lt;/font&gt;&lt;/font&gt;" style="shape=umlFrame;whiteSpace=wrap;html=1;width=140;height=30;" parent="eq4__YPAV8dtgDB64bbe-1" vertex="1">
          <mxGeometry x="10" y="-10" width="800" height="580" as="geometry" />
        </mxCell>
        <mxCell id="-mWoxHhL3KS57l9GPQiD-1" value="1.1.1参数合规性校验()" style="text;html=1;align=center;verticalAlign=middle;resizable=0;points=[];autosize=1;strokeColor=none;fillColor=none;" vertex="1" parent="eq4__YPAV8dtgDB64bbe-1">
          <mxGeometry x="470" y="220" width="130" height="20" as="geometry" />
        </mxCell>
      </root>
    </mxGraphModel>
  </diagram>
  <diagram name="聚合根" id="U5EQSaC17d2yKjOputNa">
    <mxGraphModel dx="1422" dy="706" grid="1" gridSize="10" guides="1" tooltips="1" connect="1" arrows="1" fold="1" page="1" pageScale="1" pageWidth="1169" pageHeight="1654" math="0" shadow="0">
      <root>
        <mxCell id="Q091kXPUUr4Guj-Zlr-m-0" />
        <mxCell id="Q091kXPUUr4Guj-Zlr-m-1" parent="Q091kXPUUr4Guj-Zlr-m-0" />
        <mxCell id="Q091kXPUUr4Guj-Zlr-m-2" value="" style="endArrow=none;endFill=1;endSize=12;html=1;rounded=0;fontFamily=Helvetica;startArrow=none;fontStyle=1;align=center;" parent="Q091kXPUUr4Guj-Zlr-m-1" edge="1">
          <mxGeometry width="160" relative="1" as="geometry">
            <mxPoint x="185" y="190" as="sourcePoint" />
            <mxPoint x="185" y="190" as="targetPoint" />
          </mxGeometry>
        </mxCell>
        <mxCell id="Q091kXPUUr4Guj-Zlr-m-3" value="议案" style="shape=table;startSize=30;container=1;collapsible=1;childLayout=tableLayout;fixedRows=1;rowLines=0;fontStyle=1;align=center;resizeLast=1;labelBackgroundColor=none;fillColor=#CFC86B;strokeColor=#FF6666;" parent="Q091kXPUUr4Guj-Zlr-m-1" vertex="1">
          <mxGeometry x="410" y="350" width="180" height="320" as="geometry" />
        </mxCell>
        <mxCell id="Q091kXPUUr4Guj-Zlr-m-4" value="" style="shape=partialRectangle;collapsible=0;dropTarget=0;pointerEvents=0;fillColor=#fad9d5;top=0;left=0;bottom=1;right=0;points=[[0,0.5],[1,0.5]];portConstraint=eastwest;strokeColor=#FF6666;" parent="Q091kXPUUr4Guj-Zlr-m-3" vertex="1">
          <mxGeometry y="30" width="180" height="20" as="geometry" />
        </mxCell>
        <mxCell id="Q091kXPUUr4Guj-Zlr-m-5" value="PK" style="shape=partialRectangle;connectable=0;fillColor=#CFC86B;top=0;left=0;bottom=0;right=0;fontStyle=1;overflow=hidden;strokeColor=#FF6666;" parent="Q091kXPUUr4Guj-Zlr-m-4" vertex="1">
          <mxGeometry width="30" height="20" as="geometry">
            <mxRectangle width="30" height="20" as="alternateBounds" />
          </mxGeometry>
        </mxCell>
        <mxCell id="Q091kXPUUr4Guj-Zlr-m-6" value="ID" style="shape=partialRectangle;connectable=0;top=0;left=0;bottom=0;right=0;align=left;spacingLeft=6;fontStyle=5;overflow=hidden;labelBackgroundColor=none;fillColor=#CFC86B;strokeColor=#FF6666;" parent="Q091kXPUUr4Guj-Zlr-m-4" vertex="1">
          <mxGeometry x="30" width="150" height="20" as="geometry">
            <mxRectangle width="150" height="20" as="alternateBounds" />
          </mxGeometry>
        </mxCell>
        <mxCell id="Q091kXPUUr4Guj-Zlr-m-7" value="" style="shape=partialRectangle;collapsible=0;dropTarget=0;pointerEvents=0;fillColor=#fad9d5;top=0;left=0;bottom=0;right=0;points=[[0,0.5],[1,0.5]];portConstraint=eastwest;strokeColor=#FF6666;" parent="Q091kXPUUr4Guj-Zlr-m-3" vertex="1">
          <mxGeometry y="50" width="180" height="30" as="geometry" />
        </mxCell>
        <mxCell id="Q091kXPUUr4Guj-Zlr-m-8" value="" style="shape=partialRectangle;connectable=0;fillColor=#CFC86B;top=0;left=0;bottom=0;right=0;editable=1;overflow=hidden;strokeColor=#FF6666;" parent="Q091kXPUUr4Guj-Zlr-m-7" vertex="1">
          <mxGeometry width="30" height="30" as="geometry">
            <mxRectangle width="30" height="30" as="alternateBounds" />
          </mxGeometry>
        </mxCell>
        <mxCell id="Q091kXPUUr4Guj-Zlr-m-9" value="议案编号" style="shape=partialRectangle;connectable=0;fillColor=#CFC86B;top=0;left=0;bottom=0;right=0;align=left;spacingLeft=6;overflow=hidden;labelBackgroundColor=none;strokeColor=#FF6666;" parent="Q091kXPUUr4Guj-Zlr-m-7" vertex="1">
          <mxGeometry x="30" width="150" height="30" as="geometry">
            <mxRectangle width="150" height="30" as="alternateBounds" />
          </mxGeometry>
        </mxCell>
        <mxCell id="Q091kXPUUr4Guj-Zlr-m-13" value="" style="shape=partialRectangle;collapsible=0;dropTarget=0;pointerEvents=0;fillColor=#fad9d5;top=0;left=0;bottom=0;right=0;points=[[0,0.5],[1,0.5]];portConstraint=eastwest;strokeColor=#FF6666;" parent="Q091kXPUUr4Guj-Zlr-m-3" vertex="1">
          <mxGeometry y="80" width="180" height="30" as="geometry" />
        </mxCell>
        <mxCell id="Q091kXPUUr4Guj-Zlr-m-14" value="" style="shape=partialRectangle;connectable=0;fillColor=#CFC86B;top=0;left=0;bottom=0;right=0;editable=1;overflow=hidden;strokeColor=#FF6666;" parent="Q091kXPUUr4Guj-Zlr-m-13" vertex="1">
          <mxGeometry width="30" height="30" as="geometry">
            <mxRectangle width="30" height="30" as="alternateBounds" />
          </mxGeometry>
        </mxCell>
        <mxCell id="Q091kXPUUr4Guj-Zlr-m-15" value="等级" style="shape=partialRectangle;connectable=0;fillColor=#CFC86B;top=0;left=0;bottom=0;right=0;align=left;spacingLeft=6;overflow=hidden;strokeColor=#FF6666;" parent="Q091kXPUUr4Guj-Zlr-m-13" vertex="1">
          <mxGeometry x="30" width="150" height="30" as="geometry">
            <mxRectangle width="150" height="30" as="alternateBounds" />
          </mxGeometry>
        </mxCell>
        <mxCell id="Q091kXPUUr4Guj-Zlr-m-16" value="" style="shape=partialRectangle;collapsible=0;dropTarget=0;pointerEvents=0;fillColor=#fad9d5;top=0;left=0;bottom=0;right=0;points=[[0,0.5],[1,0.5]];portConstraint=eastwest;strokeColor=#FF6666;" parent="Q091kXPUUr4Guj-Zlr-m-3" vertex="1">
          <mxGeometry y="110" width="180" height="30" as="geometry" />
        </mxCell>
        <mxCell id="Q091kXPUUr4Guj-Zlr-m-17" value="" style="shape=partialRectangle;connectable=0;fillColor=#CFC86B;top=0;left=0;bottom=0;right=0;editable=1;overflow=hidden;strokeColor=#FF6666;" parent="Q091kXPUUr4Guj-Zlr-m-16" vertex="1">
          <mxGeometry width="30" height="30" as="geometry">
            <mxRectangle width="30" height="30" as="alternateBounds" />
          </mxGeometry>
        </mxCell>
        <mxCell id="Q091kXPUUr4Guj-Zlr-m-18" value="故障零件" style="shape=partialRectangle;connectable=0;fillColor=#CFC86B;top=0;left=0;bottom=0;right=0;align=left;spacingLeft=6;overflow=hidden;strokeColor=#FF6666;" parent="Q091kXPUUr4Guj-Zlr-m-16" vertex="1">
          <mxGeometry x="30" width="150" height="30" as="geometry">
            <mxRectangle width="150" height="30" as="alternateBounds" />
          </mxGeometry>
        </mxCell>
        <mxCell id="Q091kXPUUr4Guj-Zlr-m-22" value="" style="shape=partialRectangle;collapsible=0;dropTarget=0;pointerEvents=0;fillColor=#fad9d5;top=0;left=0;bottom=0;right=0;points=[[0,0.5],[1,0.5]];portConstraint=eastwest;strokeColor=#FF6666;" parent="Q091kXPUUr4Guj-Zlr-m-3" vertex="1">
          <mxGeometry y="140" width="180" height="30" as="geometry" />
        </mxCell>
        <mxCell id="Q091kXPUUr4Guj-Zlr-m-23" value="" style="shape=partialRectangle;connectable=0;fillColor=#CFC86B;top=0;left=0;bottom=0;right=0;editable=1;overflow=hidden;strokeColor=#FF6666;" parent="Q091kXPUUr4Guj-Zlr-m-22" vertex="1">
          <mxGeometry width="30" height="30" as="geometry">
            <mxRectangle width="30" height="30" as="alternateBounds" />
          </mxGeometry>
        </mxCell>
        <mxCell id="Q091kXPUUr4Guj-Zlr-m-24" value="经销商" style="shape=partialRectangle;connectable=0;fillColor=#CFC86B;top=0;left=0;bottom=0;right=0;align=left;spacingLeft=6;overflow=hidden;strokeColor=#FF6666;" parent="Q091kXPUUr4Guj-Zlr-m-22" vertex="1">
          <mxGeometry x="30" width="150" height="30" as="geometry">
            <mxRectangle width="150" height="30" as="alternateBounds" />
          </mxGeometry>
        </mxCell>
        <mxCell id="Q091kXPUUr4Guj-Zlr-m-34" value="" style="shape=partialRectangle;collapsible=0;dropTarget=0;pointerEvents=0;fillColor=#fad9d5;top=0;left=0;bottom=0;right=0;points=[[0,0.5],[1,0.5]];portConstraint=eastwest;strokeColor=#FF6666;" parent="Q091kXPUUr4Guj-Zlr-m-3" vertex="1">
          <mxGeometry y="170" width="180" height="30" as="geometry" />
        </mxCell>
        <mxCell id="Q091kXPUUr4Guj-Zlr-m-35" value="" style="shape=partialRectangle;connectable=0;fillColor=#CFC86B;top=0;left=0;bottom=0;right=0;editable=1;overflow=hidden;strokeColor=#FF6666;" parent="Q091kXPUUr4Guj-Zlr-m-34" vertex="1">
          <mxGeometry width="30" height="30" as="geometry">
            <mxRectangle width="30" height="30" as="alternateBounds" />
          </mxGeometry>
        </mxCell>
        <mxCell id="Q091kXPUUr4Guj-Zlr-m-36" value="所属机能" style="shape=partialRectangle;connectable=0;fillColor=#CFC86B;top=0;left=0;bottom=0;right=0;align=left;spacingLeft=6;overflow=hidden;strokeColor=#FF6666;" parent="Q091kXPUUr4Guj-Zlr-m-34" vertex="1">
          <mxGeometry x="30" width="150" height="30" as="geometry">
            <mxRectangle width="150" height="30" as="alternateBounds" />
          </mxGeometry>
        </mxCell>
        <mxCell id="Q091kXPUUr4Guj-Zlr-m-37" value="" style="shape=partialRectangle;collapsible=0;dropTarget=0;pointerEvents=0;fillColor=#fad9d5;top=0;left=0;bottom=0;right=0;points=[[0,0.5],[1,0.5]];portConstraint=eastwest;strokeColor=#FF6666;" parent="Q091kXPUUr4Guj-Zlr-m-3" vertex="1">
          <mxGeometry y="200" width="180" height="30" as="geometry" />
        </mxCell>
        <mxCell id="Q091kXPUUr4Guj-Zlr-m-38" value="" style="shape=partialRectangle;connectable=0;fillColor=#CFC86B;top=0;left=0;bottom=0;right=0;editable=1;overflow=hidden;strokeColor=#FF6666;" parent="Q091kXPUUr4Guj-Zlr-m-37" vertex="1">
          <mxGeometry width="30" height="30" as="geometry">
            <mxRectangle width="30" height="30" as="alternateBounds" />
          </mxGeometry>
        </mxCell>
        <mxCell id="Q091kXPUUr4Guj-Zlr-m-39" value="议案日志" style="shape=partialRectangle;connectable=0;fillColor=#CFC86B;top=0;left=0;bottom=0;right=0;align=left;spacingLeft=6;overflow=hidden;strokeColor=#FF6666;" parent="Q091kXPUUr4Guj-Zlr-m-37" vertex="1">
          <mxGeometry x="30" width="150" height="30" as="geometry">
            <mxRectangle width="150" height="30" as="alternateBounds" />
          </mxGeometry>
        </mxCell>
        <mxCell id="KHr8mWkOGeMyBa4QNWf9-2" value="" style="shape=partialRectangle;collapsible=0;dropTarget=0;pointerEvents=0;fillColor=#fad9d5;top=0;left=0;bottom=0;right=0;points=[[0,0.5],[1,0.5]];portConstraint=eastwest;strokeColor=#FF6666;" vertex="1" parent="Q091kXPUUr4Guj-Zlr-m-3">
          <mxGeometry y="230" width="180" height="30" as="geometry" />
        </mxCell>
        <mxCell id="KHr8mWkOGeMyBa4QNWf9-3" value="" style="shape=partialRectangle;connectable=0;fillColor=#CFC86B;top=0;left=0;bottom=0;right=0;editable=1;overflow=hidden;strokeColor=#FF6666;" vertex="1" parent="KHr8mWkOGeMyBa4QNWf9-2">
          <mxGeometry width="30" height="30" as="geometry">
            <mxRectangle width="30" height="30" as="alternateBounds" />
          </mxGeometry>
        </mxCell>
        <mxCell id="KHr8mWkOGeMyBa4QNWf9-4" value="用户" style="shape=partialRectangle;connectable=0;fillColor=#CFC86B;top=0;left=0;bottom=0;right=0;align=left;spacingLeft=6;overflow=hidden;strokeColor=#FF6666;" vertex="1" parent="KHr8mWkOGeMyBa4QNWf9-2">
          <mxGeometry x="30" width="150" height="30" as="geometry">
            <mxRectangle width="150" height="30" as="alternateBounds" />
          </mxGeometry>
        </mxCell>
        <mxCell id="Bwary4bIyScAKnWDmXLR-8" value="" style="shape=partialRectangle;collapsible=0;dropTarget=0;pointerEvents=0;fillColor=#fad9d5;top=0;left=0;bottom=0;right=0;points=[[0,0.5],[1,0.5]];portConstraint=eastwest;strokeColor=#FF6666;" vertex="1" parent="Q091kXPUUr4Guj-Zlr-m-3">
          <mxGeometry y="260" width="180" height="30" as="geometry" />
        </mxCell>
        <mxCell id="Bwary4bIyScAKnWDmXLR-9" value="" style="shape=partialRectangle;connectable=0;fillColor=#CFC86B;top=0;left=0;bottom=0;right=0;editable=1;overflow=hidden;strokeColor=#FF6666;" vertex="1" parent="Bwary4bIyScAKnWDmXLR-8">
          <mxGeometry width="30" height="30" as="geometry">
            <mxRectangle width="30" height="30" as="alternateBounds" />
          </mxGeometry>
        </mxCell>
        <mxCell id="Bwary4bIyScAKnWDmXLR-10" value="车型" style="shape=partialRectangle;connectable=0;fillColor=#CFC86B;top=0;left=0;bottom=0;right=0;align=left;spacingLeft=6;overflow=hidden;strokeColor=#FF6666;" vertex="1" parent="Bwary4bIyScAKnWDmXLR-8">
          <mxGeometry x="30" width="150" height="30" as="geometry">
            <mxRectangle width="150" height="30" as="alternateBounds" />
          </mxGeometry>
        </mxCell>
        <mxCell id="KHr8mWkOGeMyBa4QNWf9-5" value="" style="shape=partialRectangle;collapsible=0;dropTarget=0;pointerEvents=0;fillColor=#fad9d5;top=0;left=0;bottom=0;right=0;points=[[0,0.5],[1,0.5]];portConstraint=eastwest;strokeColor=#FF6666;" vertex="1" parent="Q091kXPUUr4Guj-Zlr-m-3">
          <mxGeometry y="290" width="180" height="30" as="geometry" />
        </mxCell>
        <mxCell id="KHr8mWkOGeMyBa4QNWf9-6" value="" style="shape=partialRectangle;connectable=0;fillColor=#CFC86B;top=0;left=0;bottom=0;right=0;editable=1;overflow=hidden;strokeColor=#FF6666;" vertex="1" parent="KHr8mWkOGeMyBa4QNWf9-5">
          <mxGeometry width="30" height="30" as="geometry">
            <mxRectangle width="30" height="30" as="alternateBounds" />
          </mxGeometry>
        </mxCell>
        <mxCell id="KHr8mWkOGeMyBa4QNWf9-7" value="FTR" style="shape=partialRectangle;connectable=0;fillColor=#CFC86B;top=0;left=0;bottom=0;right=0;align=left;spacingLeft=6;overflow=hidden;strokeColor=#FF6666;" vertex="1" parent="KHr8mWkOGeMyBa4QNWf9-5">
          <mxGeometry x="30" width="150" height="30" as="geometry">
            <mxRectangle width="150" height="30" as="alternateBounds" />
          </mxGeometry>
        </mxCell>
        <mxCell id="Q091kXPUUr4Guj-Zlr-m-58" value="[共通]经销店" style="shape=table;startSize=30;container=1;collapsible=1;childLayout=tableLayout;fixedRows=1;rowLines=0;fontStyle=1;align=center;resizeLast=1;labelBackgroundColor=none;strokeColor=#CFC86B;fillColor=#FFFA91;" parent="Q091kXPUUr4Guj-Zlr-m-1" vertex="1">
          <mxGeometry x="80" y="380" width="180" height="90" as="geometry" />
        </mxCell>
        <mxCell id="Q091kXPUUr4Guj-Zlr-m-59" value="" style="shape=partialRectangle;collapsible=0;dropTarget=0;pointerEvents=0;fillColor=none;top=0;left=0;bottom=1;right=0;points=[[0,0.5],[1,0.5]];portConstraint=eastwest;labelBackgroundColor=none;strokeColor=#CFC86B;" parent="Q091kXPUUr4Guj-Zlr-m-58" vertex="1">
          <mxGeometry y="30" width="180" height="30" as="geometry" />
        </mxCell>
        <mxCell id="Q091kXPUUr4Guj-Zlr-m-60" value="PK" style="shape=partialRectangle;connectable=0;fillColor=#FFFA91;top=0;left=0;bottom=0;right=0;fontStyle=1;overflow=hidden;labelBackgroundColor=none;strokeColor=#CFC86B;" parent="Q091kXPUUr4Guj-Zlr-m-59" vertex="1">
          <mxGeometry width="30" height="30" as="geometry">
            <mxRectangle width="30" height="30" as="alternateBounds" />
          </mxGeometry>
        </mxCell>
        <mxCell id="Q091kXPUUr4Guj-Zlr-m-61" value="ID" style="shape=partialRectangle;connectable=0;fillColor=#FFFA91;top=0;left=0;bottom=0;right=0;align=left;spacingLeft=6;fontStyle=5;overflow=hidden;labelBackgroundColor=none;strokeColor=#CFC86B;" parent="Q091kXPUUr4Guj-Zlr-m-59" vertex="1">
          <mxGeometry x="30" width="150" height="30" as="geometry">
            <mxRectangle width="150" height="30" as="alternateBounds" />
          </mxGeometry>
        </mxCell>
        <mxCell id="Q091kXPUUr4Guj-Zlr-m-62" value="" style="shape=partialRectangle;collapsible=0;dropTarget=0;pointerEvents=0;fillColor=none;top=0;left=0;bottom=0;right=0;points=[[0,0.5],[1,0.5]];portConstraint=eastwest;labelBackgroundColor=none;strokeColor=#CFC86B;" parent="Q091kXPUUr4Guj-Zlr-m-58" vertex="1">
          <mxGeometry y="60" width="180" height="30" as="geometry" />
        </mxCell>
        <mxCell id="Q091kXPUUr4Guj-Zlr-m-63" value="" style="shape=partialRectangle;connectable=0;fillColor=#FFFA91;top=0;left=0;bottom=0;right=0;editable=1;overflow=hidden;labelBackgroundColor=none;strokeColor=#CFC86B;" parent="Q091kXPUUr4Guj-Zlr-m-62" vertex="1">
          <mxGeometry width="30" height="30" as="geometry">
            <mxRectangle width="30" height="30" as="alternateBounds" />
          </mxGeometry>
        </mxCell>
        <mxCell id="Q091kXPUUr4Guj-Zlr-m-64" value="经销店信息" style="shape=partialRectangle;connectable=0;fillColor=#FFFA91;top=0;left=0;bottom=0;right=0;align=left;spacingLeft=6;overflow=hidden;labelBackgroundColor=none;strokeColor=#CFC86B;" parent="Q091kXPUUr4Guj-Zlr-m-62" vertex="1">
          <mxGeometry x="30" width="150" height="30" as="geometry">
            <mxRectangle width="150" height="30" as="alternateBounds" />
          </mxGeometry>
        </mxCell>
        <mxCell id="Q091kXPUUr4Guj-Zlr-m-71" value="[共通]用户" style="shape=table;startSize=30;container=1;collapsible=1;childLayout=tableLayout;fixedRows=1;rowLines=0;fontStyle=1;align=center;resizeLast=1;labelBackgroundColor=none;strokeColor=#CFC86B;fillColor=#FFFA91;" parent="Q091kXPUUr4Guj-Zlr-m-1" vertex="1">
          <mxGeometry x="80" y="580" width="180" height="90" as="geometry" />
        </mxCell>
        <mxCell id="Q091kXPUUr4Guj-Zlr-m-72" value="" style="shape=partialRectangle;collapsible=0;dropTarget=0;pointerEvents=0;fillColor=none;top=0;left=0;bottom=1;right=0;points=[[0,0.5],[1,0.5]];portConstraint=eastwest;labelBackgroundColor=none;strokeColor=#CFC86B;" parent="Q091kXPUUr4Guj-Zlr-m-71" vertex="1">
          <mxGeometry y="30" width="180" height="30" as="geometry" />
        </mxCell>
        <mxCell id="Q091kXPUUr4Guj-Zlr-m-73" value="PK" style="shape=partialRectangle;connectable=0;fillColor=#FFFA91;top=0;left=0;bottom=0;right=0;fontStyle=1;overflow=hidden;labelBackgroundColor=none;strokeColor=default;" parent="Q091kXPUUr4Guj-Zlr-m-72" vertex="1">
          <mxGeometry width="30" height="30" as="geometry">
            <mxRectangle width="30" height="30" as="alternateBounds" />
          </mxGeometry>
        </mxCell>
        <mxCell id="Q091kXPUUr4Guj-Zlr-m-74" value="ID" style="shape=partialRectangle;connectable=0;fillColor=#FFFA91;top=0;left=0;bottom=0;right=0;align=left;spacingLeft=6;fontStyle=5;overflow=hidden;labelBackgroundColor=none;strokeColor=default;" parent="Q091kXPUUr4Guj-Zlr-m-72" vertex="1">
          <mxGeometry x="30" width="150" height="30" as="geometry">
            <mxRectangle width="150" height="30" as="alternateBounds" />
          </mxGeometry>
        </mxCell>
        <mxCell id="Q091kXPUUr4Guj-Zlr-m-75" value="" style="shape=partialRectangle;collapsible=0;dropTarget=0;pointerEvents=0;fillColor=none;top=0;left=0;bottom=0;right=0;points=[[0,0.5],[1,0.5]];portConstraint=eastwest;labelBackgroundColor=none;strokeColor=#CFC86B;" parent="Q091kXPUUr4Guj-Zlr-m-71" vertex="1">
          <mxGeometry y="60" width="180" height="30" as="geometry" />
        </mxCell>
        <mxCell id="Q091kXPUUr4Guj-Zlr-m-76" value="" style="shape=partialRectangle;connectable=0;fillColor=#FFFA91;top=0;left=0;bottom=0;right=0;editable=1;overflow=hidden;labelBackgroundColor=none;strokeColor=default;" parent="Q091kXPUUr4Guj-Zlr-m-75" vertex="1">
          <mxGeometry width="30" height="30" as="geometry">
            <mxRectangle width="30" height="30" as="alternateBounds" />
          </mxGeometry>
        </mxCell>
        <mxCell id="Q091kXPUUr4Guj-Zlr-m-77" value="用户名称" style="shape=partialRectangle;connectable=0;fillColor=#FFFA91;top=0;left=0;bottom=0;right=0;align=left;spacingLeft=6;overflow=hidden;labelBackgroundColor=none;strokeColor=default;" parent="Q091kXPUUr4Guj-Zlr-m-75" vertex="1">
          <mxGeometry x="30" width="150" height="30" as="geometry">
            <mxRectangle width="150" height="30" as="alternateBounds" />
          </mxGeometry>
        </mxCell>
        <mxCell id="Q091kXPUUr4Guj-Zlr-m-84" value="[共通]车辆" style="shape=table;startSize=30;container=1;collapsible=1;childLayout=tableLayout;fixedRows=1;rowLines=0;fontStyle=1;align=center;resizeLast=1;labelBackgroundColor=none;strokeColor=#CFC86B;fillColor=#FFFA91;gradientColor=none;" parent="Q091kXPUUr4Guj-Zlr-m-1" vertex="1">
          <mxGeometry x="720" y="680" width="160" height="120" as="geometry" />
        </mxCell>
        <mxCell id="Q091kXPUUr4Guj-Zlr-m-85" value="" style="shape=partialRectangle;collapsible=0;dropTarget=0;pointerEvents=0;fillColor=none;top=0;left=0;bottom=1;right=0;points=[[0,0.5],[1,0.5]];portConstraint=eastwest;labelBackgroundColor=none;strokeColor=#CFC86B;" parent="Q091kXPUUr4Guj-Zlr-m-84" vertex="1">
          <mxGeometry y="30" width="160" height="30" as="geometry" />
        </mxCell>
        <mxCell id="Q091kXPUUr4Guj-Zlr-m-86" value="PK" style="shape=partialRectangle;connectable=0;fillColor=#FFFA91;top=0;left=0;bottom=0;right=0;fontStyle=1;overflow=hidden;labelBackgroundColor=none;strokeColor=#CFC86B;" parent="Q091kXPUUr4Guj-Zlr-m-85" vertex="1">
          <mxGeometry width="30" height="30" as="geometry">
            <mxRectangle width="30" height="30" as="alternateBounds" />
          </mxGeometry>
        </mxCell>
        <mxCell id="Q091kXPUUr4Guj-Zlr-m-87" value="ID" style="shape=partialRectangle;connectable=0;fillColor=#FFFA91;top=0;left=0;bottom=0;right=0;align=left;spacingLeft=6;fontStyle=5;overflow=hidden;labelBackgroundColor=none;strokeColor=#CFC86B;" parent="Q091kXPUUr4Guj-Zlr-m-85" vertex="1">
          <mxGeometry x="30" width="130" height="30" as="geometry">
            <mxRectangle width="130" height="30" as="alternateBounds" />
          </mxGeometry>
        </mxCell>
        <mxCell id="Q091kXPUUr4Guj-Zlr-m-88" value="" style="shape=partialRectangle;collapsible=0;dropTarget=0;pointerEvents=0;fillColor=none;top=0;left=0;bottom=0;right=0;points=[[0,0.5],[1,0.5]];portConstraint=eastwest;labelBackgroundColor=none;strokeColor=#CFC86B;" parent="Q091kXPUUr4Guj-Zlr-m-84" vertex="1">
          <mxGeometry y="60" width="160" height="30" as="geometry" />
        </mxCell>
        <mxCell id="Q091kXPUUr4Guj-Zlr-m-89" value="" style="shape=partialRectangle;connectable=0;fillColor=#FFFA91;top=0;left=0;bottom=0;right=0;editable=1;overflow=hidden;labelBackgroundColor=none;strokeColor=#CFC86B;" parent="Q091kXPUUr4Guj-Zlr-m-88" vertex="1">
          <mxGeometry width="30" height="30" as="geometry">
            <mxRectangle width="30" height="30" as="alternateBounds" />
          </mxGeometry>
        </mxCell>
        <mxCell id="Q091kXPUUr4Guj-Zlr-m-90" value="车架号" style="shape=partialRectangle;connectable=0;fillColor=#FFFA91;top=0;left=0;bottom=0;right=0;align=left;spacingLeft=6;overflow=hidden;labelBackgroundColor=none;strokeColor=#CFC86B;" parent="Q091kXPUUr4Guj-Zlr-m-88" vertex="1">
          <mxGeometry x="30" width="130" height="30" as="geometry">
            <mxRectangle width="130" height="30" as="alternateBounds" />
          </mxGeometry>
        </mxCell>
        <mxCell id="KHr8mWkOGeMyBa4QNWf9-11" value="" style="shape=partialRectangle;collapsible=0;dropTarget=0;pointerEvents=0;fillColor=none;top=0;left=0;bottom=0;right=0;points=[[0,0.5],[1,0.5]];portConstraint=eastwest;labelBackgroundColor=none;strokeColor=#CFC86B;" vertex="1" parent="Q091kXPUUr4Guj-Zlr-m-84">
          <mxGeometry y="90" width="160" height="30" as="geometry" />
        </mxCell>
        <mxCell id="KHr8mWkOGeMyBa4QNWf9-12" value="" style="shape=partialRectangle;connectable=0;fillColor=#FFFA91;top=0;left=0;bottom=0;right=0;editable=1;overflow=hidden;labelBackgroundColor=none;strokeColor=#CFC86B;" vertex="1" parent="KHr8mWkOGeMyBa4QNWf9-11">
          <mxGeometry width="30" height="30" as="geometry">
            <mxRectangle width="30" height="30" as="alternateBounds" />
          </mxGeometry>
        </mxCell>
        <mxCell id="KHr8mWkOGeMyBa4QNWf9-13" value="车型" style="shape=partialRectangle;connectable=0;fillColor=#FFFA91;top=0;left=0;bottom=0;right=0;align=left;spacingLeft=6;overflow=hidden;labelBackgroundColor=none;strokeColor=#CFC86B;" vertex="1" parent="KHr8mWkOGeMyBa4QNWf9-11">
          <mxGeometry x="30" width="130" height="30" as="geometry">
            <mxRectangle width="130" height="30" as="alternateBounds" />
          </mxGeometry>
        </mxCell>
        <mxCell id="Q091kXPUUr4Guj-Zlr-m-97" value="[共通]零部件" style="shape=table;startSize=30;container=1;collapsible=1;childLayout=tableLayout;fixedRows=1;rowLines=0;fontStyle=1;align=center;resizeLast=1;labelBackgroundColor=none;strokeColor=#CFC86B;fillColor=#FFFA91;" parent="Q091kXPUUr4Guj-Zlr-m-1" vertex="1">
          <mxGeometry x="80" y="480" width="180" height="90" as="geometry" />
        </mxCell>
        <mxCell id="Q091kXPUUr4Guj-Zlr-m-98" value="" style="shape=partialRectangle;collapsible=0;dropTarget=0;pointerEvents=0;fillColor=none;top=0;left=0;bottom=1;right=0;points=[[0,0.5],[1,0.5]];portConstraint=eastwest;labelBackgroundColor=none;strokeColor=#CFC86B;" parent="Q091kXPUUr4Guj-Zlr-m-97" vertex="1">
          <mxGeometry y="30" width="180" height="30" as="geometry" />
        </mxCell>
        <mxCell id="Q091kXPUUr4Guj-Zlr-m-99" value="PK" style="shape=partialRectangle;connectable=0;fillColor=#FFFA91;top=0;left=0;bottom=0;right=0;fontStyle=1;overflow=hidden;labelBackgroundColor=none;strokeColor=#FFFA91;" parent="Q091kXPUUr4Guj-Zlr-m-98" vertex="1">
          <mxGeometry width="30" height="30" as="geometry">
            <mxRectangle width="30" height="30" as="alternateBounds" />
          </mxGeometry>
        </mxCell>
        <mxCell id="Q091kXPUUr4Guj-Zlr-m-100" value="ID" style="shape=partialRectangle;connectable=0;fillColor=#FFFA91;top=0;left=0;bottom=0;right=0;align=left;spacingLeft=6;fontStyle=5;overflow=hidden;labelBackgroundColor=none;strokeColor=#FFFA91;" parent="Q091kXPUUr4Guj-Zlr-m-98" vertex="1">
          <mxGeometry x="30" width="150" height="30" as="geometry">
            <mxRectangle width="150" height="30" as="alternateBounds" />
          </mxGeometry>
        </mxCell>
        <mxCell id="Q091kXPUUr4Guj-Zlr-m-101" value="" style="shape=partialRectangle;collapsible=0;dropTarget=0;pointerEvents=0;fillColor=none;top=0;left=0;bottom=0;right=0;points=[[0,0.5],[1,0.5]];portConstraint=eastwest;labelBackgroundColor=none;strokeColor=#CFC86B;" parent="Q091kXPUUr4Guj-Zlr-m-97" vertex="1">
          <mxGeometry y="60" width="180" height="30" as="geometry" />
        </mxCell>
        <mxCell id="Q091kXPUUr4Guj-Zlr-m-102" value="" style="shape=partialRectangle;connectable=0;fillColor=#FFFA91;top=0;left=0;bottom=0;right=0;editable=1;overflow=hidden;labelBackgroundColor=none;strokeColor=#FFFA91;" parent="Q091kXPUUr4Guj-Zlr-m-101" vertex="1">
          <mxGeometry width="30" height="30" as="geometry">
            <mxRectangle width="30" height="30" as="alternateBounds" />
          </mxGeometry>
        </mxCell>
        <mxCell id="Q091kXPUUr4Guj-Zlr-m-103" value="零件信息" style="shape=partialRectangle;connectable=0;fillColor=#FFFA91;top=0;left=0;bottom=0;right=0;align=left;spacingLeft=6;overflow=hidden;labelBackgroundColor=none;strokeColor=#FFFA91;" parent="Q091kXPUUr4Guj-Zlr-m-101" vertex="1">
          <mxGeometry x="30" width="150" height="30" as="geometry">
            <mxRectangle width="150" height="30" as="alternateBounds" />
          </mxGeometry>
        </mxCell>
        <mxCell id="Q091kXPUUr4Guj-Zlr-m-113" value="议案日志" style="shape=table;startSize=30;container=1;collapsible=1;childLayout=tableLayout;fixedRows=1;rowLines=0;fontStyle=0;align=center;resizeLast=1;labelBackgroundColor=none;strokeColor=#CFC86B;fillColor=#CFC86B;" parent="Q091kXPUUr4Guj-Zlr-m-1" vertex="1">
          <mxGeometry x="665" y="420" width="160" height="180" as="geometry" />
        </mxCell>
        <mxCell id="Q091kXPUUr4Guj-Zlr-m-114" value="" style="shape=partialRectangle;collapsible=0;dropTarget=0;pointerEvents=0;fillColor=#CFC86B;top=0;left=0;bottom=1;right=0;points=[[0,0.5],[1,0.5]];portConstraint=eastwest;labelBackgroundColor=none;strokeColor=#CFC86B;fontStyle=0" parent="Q091kXPUUr4Guj-Zlr-m-113" vertex="1">
          <mxGeometry y="30" width="160" height="30" as="geometry" />
        </mxCell>
        <mxCell id="Q091kXPUUr4Guj-Zlr-m-115" value="PK" style="shape=partialRectangle;connectable=0;fillColor=#CFC86B;top=0;left=0;bottom=0;right=0;fontStyle=0;overflow=hidden;labelBackgroundColor=none;strokeColor=#CFC86B;" parent="Q091kXPUUr4Guj-Zlr-m-114" vertex="1">
          <mxGeometry width="30" height="30" as="geometry">
            <mxRectangle width="30" height="30" as="alternateBounds" />
          </mxGeometry>
        </mxCell>
        <mxCell id="Q091kXPUUr4Guj-Zlr-m-116" value="ID" style="shape=partialRectangle;connectable=0;fillColor=#CFC86B;top=0;left=0;bottom=0;right=0;align=left;spacingLeft=6;fontStyle=4;overflow=hidden;labelBackgroundColor=none;strokeColor=#CFC86B;" parent="Q091kXPUUr4Guj-Zlr-m-114" vertex="1">
          <mxGeometry x="30" width="130" height="30" as="geometry">
            <mxRectangle width="130" height="30" as="alternateBounds" />
          </mxGeometry>
        </mxCell>
        <mxCell id="Q091kXPUUr4Guj-Zlr-m-117" value="" style="shape=partialRectangle;collapsible=0;dropTarget=0;pointerEvents=0;fillColor=#CFC86B;top=0;left=0;bottom=0;right=0;points=[[0,0.5],[1,0.5]];portConstraint=eastwest;labelBackgroundColor=none;strokeColor=#CFC86B;fontStyle=0" parent="Q091kXPUUr4Guj-Zlr-m-113" vertex="1">
          <mxGeometry y="60" width="160" height="30" as="geometry" />
        </mxCell>
        <mxCell id="Q091kXPUUr4Guj-Zlr-m-118" value="" style="shape=partialRectangle;connectable=0;fillColor=#CFC86B;top=0;left=0;bottom=0;right=0;editable=1;overflow=hidden;labelBackgroundColor=none;strokeColor=#CFC86B;fontStyle=0" parent="Q091kXPUUr4Guj-Zlr-m-117" vertex="1">
          <mxGeometry width="30" height="30" as="geometry">
            <mxRectangle width="30" height="30" as="alternateBounds" />
          </mxGeometry>
        </mxCell>
        <mxCell id="Q091kXPUUr4Guj-Zlr-m-119" value="操作人" style="shape=partialRectangle;connectable=0;fillColor=#CFC86B;top=0;left=0;bottom=0;right=0;align=left;spacingLeft=6;overflow=hidden;labelBackgroundColor=none;strokeColor=#CFC86B;fontStyle=0" parent="Q091kXPUUr4Guj-Zlr-m-117" vertex="1">
          <mxGeometry x="30" width="130" height="30" as="geometry">
            <mxRectangle width="130" height="30" as="alternateBounds" />
          </mxGeometry>
        </mxCell>
        <mxCell id="Q091kXPUUr4Guj-Zlr-m-120" value="" style="shape=partialRectangle;collapsible=0;dropTarget=0;pointerEvents=0;fillColor=#CFC86B;top=0;left=0;bottom=0;right=0;points=[[0,0.5],[1,0.5]];portConstraint=eastwest;labelBackgroundColor=none;strokeColor=#CFC86B;fontStyle=0" parent="Q091kXPUUr4Guj-Zlr-m-113" vertex="1">
          <mxGeometry y="90" width="160" height="30" as="geometry" />
        </mxCell>
        <mxCell id="Q091kXPUUr4Guj-Zlr-m-121" value="" style="shape=partialRectangle;connectable=0;fillColor=#CFC86B;top=0;left=0;bottom=0;right=0;editable=1;overflow=hidden;labelBackgroundColor=none;strokeColor=#CFC86B;fontStyle=0" parent="Q091kXPUUr4Guj-Zlr-m-120" vertex="1">
          <mxGeometry width="30" height="30" as="geometry">
            <mxRectangle width="30" height="30" as="alternateBounds" />
          </mxGeometry>
        </mxCell>
        <mxCell id="Q091kXPUUr4Guj-Zlr-m-122" value="操作类型" style="shape=partialRectangle;connectable=0;fillColor=#CFC86B;top=0;left=0;bottom=0;right=0;align=left;spacingLeft=6;overflow=hidden;labelBackgroundColor=none;strokeColor=#CFC86B;fontStyle=0" parent="Q091kXPUUr4Guj-Zlr-m-120" vertex="1">
          <mxGeometry x="30" width="130" height="30" as="geometry">
            <mxRectangle width="130" height="30" as="alternateBounds" />
          </mxGeometry>
        </mxCell>
        <mxCell id="Q091kXPUUr4Guj-Zlr-m-123" value="" style="shape=partialRectangle;collapsible=0;dropTarget=0;pointerEvents=0;fillColor=#CFC86B;top=0;left=0;bottom=0;right=0;points=[[0,0.5],[1,0.5]];portConstraint=eastwest;labelBackgroundColor=none;strokeColor=#CFC86B;fontStyle=0" parent="Q091kXPUUr4Guj-Zlr-m-113" vertex="1">
          <mxGeometry y="120" width="160" height="30" as="geometry" />
        </mxCell>
        <mxCell id="Q091kXPUUr4Guj-Zlr-m-124" value="" style="shape=partialRectangle;connectable=0;fillColor=#CFC86B;top=0;left=0;bottom=0;right=0;editable=1;overflow=hidden;labelBackgroundColor=none;strokeColor=#CFC86B;fontStyle=0" parent="Q091kXPUUr4Guj-Zlr-m-123" vertex="1">
          <mxGeometry width="30" height="30" as="geometry">
            <mxRectangle width="30" height="30" as="alternateBounds" />
          </mxGeometry>
        </mxCell>
        <mxCell id="Q091kXPUUr4Guj-Zlr-m-125" value="操作时间" style="shape=partialRectangle;connectable=0;fillColor=#CFC86B;top=0;left=0;bottom=0;right=0;align=left;spacingLeft=6;overflow=hidden;labelBackgroundColor=none;strokeColor=#CFC86B;fontStyle=0" parent="Q091kXPUUr4Guj-Zlr-m-123" vertex="1">
          <mxGeometry x="30" width="130" height="30" as="geometry">
            <mxRectangle width="130" height="30" as="alternateBounds" />
          </mxGeometry>
        </mxCell>
        <mxCell id="Q091kXPUUr4Guj-Zlr-m-126" value="" style="shape=partialRectangle;collapsible=0;dropTarget=0;pointerEvents=0;fillColor=#CFC86B;top=0;left=0;bottom=0;right=0;points=[[0,0.5],[1,0.5]];portConstraint=eastwest;labelBackgroundColor=none;strokeColor=#CFC86B;fontStyle=0" parent="Q091kXPUUr4Guj-Zlr-m-113" vertex="1">
          <mxGeometry y="150" width="160" height="30" as="geometry" />
        </mxCell>
        <mxCell id="Q091kXPUUr4Guj-Zlr-m-127" value="" style="shape=partialRectangle;connectable=0;fillColor=#CFC86B;top=0;left=0;bottom=0;right=0;editable=1;overflow=hidden;labelBackgroundColor=none;strokeColor=#CFC86B;fontStyle=0" parent="Q091kXPUUr4Guj-Zlr-m-126" vertex="1">
          <mxGeometry width="30" height="30" as="geometry">
            <mxRectangle width="30" height="30" as="alternateBounds" />
          </mxGeometry>
        </mxCell>
        <mxCell id="Q091kXPUUr4Guj-Zlr-m-128" value="备注" style="shape=partialRectangle;connectable=0;fillColor=#CFC86B;top=0;left=0;bottom=0;right=0;align=left;spacingLeft=6;overflow=hidden;labelBackgroundColor=none;strokeColor=#CFC86B;fontStyle=0" parent="Q091kXPUUr4Guj-Zlr-m-126" vertex="1">
          <mxGeometry x="30" width="130" height="30" as="geometry">
            <mxRectangle width="130" height="30" as="alternateBounds" />
          </mxGeometry>
        </mxCell>
        <mxCell id="Q091kXPUUr4Guj-Zlr-m-129" value="" style="endArrow=open;html=1;endSize=12;startArrow=diamondThin;startSize=14;startFill=0;edgeStyle=orthogonalEdgeStyle;rounded=0;" parent="Q091kXPUUr4Guj-Zlr-m-1" edge="1">
          <mxGeometry relative="1" as="geometry">
            <mxPoint x="585" y="590" as="sourcePoint" />
            <mxPoint x="665" y="470" as="targetPoint" />
            <Array as="points">
              <mxPoint x="615" y="590" />
              <mxPoint x="615" y="470" />
            </Array>
          </mxGeometry>
        </mxCell>
        <mxCell id="Q091kXPUUr4Guj-Zlr-m-130" value="" style="edgeLabel;resizable=0;html=1;align=left;verticalAlign=top;labelBackgroundColor=none;strokeColor=#FFFA91;fillColor=#FFFA91;" parent="Q091kXPUUr4Guj-Zlr-m-129" connectable="0" vertex="1">
          <mxGeometry x="-1" relative="1" as="geometry" />
        </mxCell>
        <mxCell id="Q091kXPUUr4Guj-Zlr-m-131" value="" style="edgeLabel;resizable=0;html=1;align=right;verticalAlign=top;labelBackgroundColor=none;strokeColor=#FFFA91;fillColor=#FFFA91;fontStyle=0" parent="Q091kXPUUr4Guj-Zlr-m-129" connectable="0" vertex="1">
          <mxGeometry x="1" relative="1" as="geometry" />
        </mxCell>
        <mxCell id="Q091kXPUUr4Guj-Zlr-m-135" value="" style="edgeStyle=entityRelationEdgeStyle;fontSize=12;html=1;endArrow=ERoneToMany;rounded=0;entryX=0;entryY=0.5;entryDx=0;entryDy=0;" parent="Q091kXPUUr4Guj-Zlr-m-1" target="Q091kXPUUr4Guj-Zlr-m-85" edge="1">
          <mxGeometry width="100" height="100" relative="1" as="geometry">
            <mxPoint x="590" y="630" as="sourcePoint" />
            <mxPoint x="720" y="646.5" as="targetPoint" />
          </mxGeometry>
        </mxCell>
        <mxCell id="Q091kXPUUr4Guj-Zlr-m-136" value="" style="edgeStyle=entityRelationEdgeStyle;fontSize=12;html=1;endArrow=ERoneToMany;rounded=0;entryX=1;entryY=0.5;entryDx=0;entryDy=0;exitX=0;exitY=0.5;exitDx=0;exitDy=0;" parent="Q091kXPUUr4Guj-Zlr-m-1" source="Q091kXPUUr4Guj-Zlr-m-34" target="Q091kXPUUr4Guj-Zlr-m-101" edge="1">
          <mxGeometry width="100" height="100" relative="1" as="geometry">
            <mxPoint x="370" y="490" as="sourcePoint" />
            <mxPoint x="346.94000000000005" y="598.01" as="targetPoint" />
          </mxGeometry>
        </mxCell>
        <mxCell id="G83Cr9B6TmgcAmItvlYq-3" value="" style="endArrow=open;html=1;endSize=12;startArrow=diamondThin;startSize=14;startFill=0;edgeStyle=orthogonalEdgeStyle;rounded=0;exitX=0;exitY=0.667;exitDx=0;exitDy=0;exitPerimeter=0;" edge="1" parent="Q091kXPUUr4Guj-Zlr-m-1" target="Q091kXPUUr4Guj-Zlr-m-72">
          <mxGeometry relative="1" as="geometry">
            <mxPoint x="410" y="555.01" as="sourcePoint" />
            <mxPoint x="270" y="630" as="targetPoint" />
            <Array as="points">
              <mxPoint x="350" y="555" />
              <mxPoint x="350" y="625" />
            </Array>
          </mxGeometry>
        </mxCell>
        <mxCell id="G83Cr9B6TmgcAmItvlYq-4" value="" style="edgeLabel;resizable=0;html=1;align=left;verticalAlign=top;labelBackgroundColor=none;strokeColor=#FFFA91;fillColor=#FFFA91;" connectable="0" vertex="1" parent="G83Cr9B6TmgcAmItvlYq-3">
          <mxGeometry x="-1" relative="1" as="geometry" />
        </mxCell>
        <mxCell id="G83Cr9B6TmgcAmItvlYq-5" value="" style="edgeLabel;resizable=0;html=1;align=right;verticalAlign=top;labelBackgroundColor=none;strokeColor=#FFFA91;fillColor=#FFFA91;" connectable="0" vertex="1" parent="G83Cr9B6TmgcAmItvlYq-3">
          <mxGeometry x="1" relative="1" as="geometry" />
        </mxCell>
        <mxCell id="G83Cr9B6TmgcAmItvlYq-6" value="" style="endArrow=open;html=1;endSize=12;startArrow=diamondThin;startSize=14;startFill=0;edgeStyle=orthogonalEdgeStyle;rounded=0;exitX=0;exitY=0.5;exitDx=0;exitDy=0;" edge="1" parent="Q091kXPUUr4Guj-Zlr-m-1" source="Q091kXPUUr4Guj-Zlr-m-22">
          <mxGeometry relative="1" as="geometry">
            <mxPoint x="380" y="510" as="sourcePoint" />
            <mxPoint x="260" y="425" as="targetPoint" />
            <Array as="points">
              <mxPoint x="350" y="505" />
              <mxPoint x="350" y="425" />
            </Array>
          </mxGeometry>
        </mxCell>
        <mxCell id="G83Cr9B6TmgcAmItvlYq-7" value="" style="edgeLabel;resizable=0;html=1;align=left;verticalAlign=top;labelBackgroundColor=none;strokeColor=#FFFA91;fillColor=#FFFA91;" connectable="0" vertex="1" parent="G83Cr9B6TmgcAmItvlYq-6">
          <mxGeometry x="-1" relative="1" as="geometry" />
        </mxCell>
        <mxCell id="G83Cr9B6TmgcAmItvlYq-8" value="" style="edgeLabel;resizable=0;html=1;align=right;verticalAlign=top;labelBackgroundColor=none;strokeColor=#FFFA91;fillColor=#FFFA91;" connectable="0" vertex="1" parent="G83Cr9B6TmgcAmItvlYq-6">
          <mxGeometry x="1" relative="1" as="geometry" />
        </mxCell>
        <mxCell id="Bwary4bIyScAKnWDmXLR-0" value="【本领域】FTR" style="shape=table;startSize=30;container=1;collapsible=1;childLayout=tableLayout;fixedRows=1;rowLines=0;fontStyle=1;align=center;resizeLast=1;labelBackgroundColor=none;strokeColor=#82b366;fillColor=#00BB00;" vertex="1" parent="Q091kXPUUr4Guj-Zlr-m-1">
          <mxGeometry x="80" y="690" width="180" height="120" as="geometry" />
        </mxCell>
        <mxCell id="Bwary4bIyScAKnWDmXLR-1" value="" style="shape=partialRectangle;collapsible=0;dropTarget=0;pointerEvents=0;fillColor=none;top=0;left=0;bottom=1;right=0;points=[[0,0.5],[1,0.5]];portConstraint=eastwest;labelBackgroundColor=none;strokeColor=#CFC86B;" vertex="1" parent="Bwary4bIyScAKnWDmXLR-0">
          <mxGeometry y="30" width="180" height="30" as="geometry" />
        </mxCell>
        <mxCell id="Bwary4bIyScAKnWDmXLR-2" value="PK" style="shape=partialRectangle;connectable=0;fillColor=#00BB00;top=0;left=0;bottom=0;right=0;fontStyle=1;overflow=hidden;labelBackgroundColor=none;strokeColor=#82b366;" vertex="1" parent="Bwary4bIyScAKnWDmXLR-1">
          <mxGeometry width="30" height="30" as="geometry">
            <mxRectangle width="30" height="30" as="alternateBounds" />
          </mxGeometry>
        </mxCell>
        <mxCell id="Bwary4bIyScAKnWDmXLR-3" value="ID" style="shape=partialRectangle;connectable=0;fillColor=#00BB00;top=0;left=0;bottom=0;right=0;align=left;spacingLeft=6;fontStyle=5;overflow=hidden;labelBackgroundColor=none;strokeColor=#82b366;" vertex="1" parent="Bwary4bIyScAKnWDmXLR-1">
          <mxGeometry x="30" width="150" height="30" as="geometry">
            <mxRectangle width="150" height="30" as="alternateBounds" />
          </mxGeometry>
        </mxCell>
        <mxCell id="Bwary4bIyScAKnWDmXLR-4" value="" style="shape=partialRectangle;collapsible=0;dropTarget=0;pointerEvents=0;fillColor=none;top=0;left=0;bottom=0;right=0;points=[[0,0.5],[1,0.5]];portConstraint=eastwest;labelBackgroundColor=none;strokeColor=#CFC86B;" vertex="1" parent="Bwary4bIyScAKnWDmXLR-0">
          <mxGeometry y="60" width="180" height="30" as="geometry" />
        </mxCell>
        <mxCell id="Bwary4bIyScAKnWDmXLR-5" value="" style="shape=partialRectangle;connectable=0;fillColor=#00BB00;top=0;left=0;bottom=0;right=0;editable=1;overflow=hidden;labelBackgroundColor=none;strokeColor=#82b366;" vertex="1" parent="Bwary4bIyScAKnWDmXLR-4">
          <mxGeometry width="30" height="30" as="geometry">
            <mxRectangle width="30" height="30" as="alternateBounds" />
          </mxGeometry>
        </mxCell>
        <mxCell id="Bwary4bIyScAKnWDmXLR-6" value="FTR编号" style="shape=partialRectangle;connectable=0;fillColor=#00BB00;top=0;left=0;bottom=0;right=0;align=left;spacingLeft=6;overflow=hidden;labelBackgroundColor=none;strokeColor=#82b366;" vertex="1" parent="Bwary4bIyScAKnWDmXLR-4">
          <mxGeometry x="30" width="150" height="30" as="geometry">
            <mxRectangle width="150" height="30" as="alternateBounds" />
          </mxGeometry>
        </mxCell>
        <mxCell id="e7nJv5PnSIx7dAPS7U2i-0" value="" style="shape=partialRectangle;collapsible=0;dropTarget=0;pointerEvents=0;fillColor=none;top=0;left=0;bottom=0;right=0;points=[[0,0.5],[1,0.5]];portConstraint=eastwest;labelBackgroundColor=none;strokeColor=#CFC86B;" vertex="1" parent="Bwary4bIyScAKnWDmXLR-0">
          <mxGeometry y="90" width="180" height="30" as="geometry" />
        </mxCell>
        <mxCell id="e7nJv5PnSIx7dAPS7U2i-1" value="" style="shape=partialRectangle;connectable=0;fillColor=#00BB00;top=0;left=0;bottom=0;right=0;editable=1;overflow=hidden;labelBackgroundColor=none;strokeColor=#82b366;" vertex="1" parent="e7nJv5PnSIx7dAPS7U2i-0">
          <mxGeometry width="30" height="30" as="geometry">
            <mxRectangle width="30" height="30" as="alternateBounds" />
          </mxGeometry>
        </mxCell>
        <mxCell id="e7nJv5PnSIx7dAPS7U2i-2" value="FTR名称" style="shape=partialRectangle;connectable=0;fillColor=#00BB00;top=0;left=0;bottom=0;right=0;align=left;spacingLeft=6;overflow=hidden;labelBackgroundColor=none;strokeColor=#82b366;" vertex="1" parent="e7nJv5PnSIx7dAPS7U2i-0">
          <mxGeometry x="30" width="150" height="30" as="geometry">
            <mxRectangle width="150" height="30" as="alternateBounds" />
          </mxGeometry>
        </mxCell>
        <mxCell id="Bwary4bIyScAKnWDmXLR-11" value="" style="endArrow=open;html=1;endSize=12;startArrow=diamondThin;startSize=14;startFill=0;edgeStyle=orthogonalEdgeStyle;rounded=0;exitX=0;exitY=0.667;exitDx=0;exitDy=0;exitPerimeter=0;" edge="1" parent="Q091kXPUUr4Guj-Zlr-m-1">
          <mxGeometry relative="1" as="geometry">
            <mxPoint x="410" y="660.01" as="sourcePoint" />
            <mxPoint x="260" y="730" as="targetPoint" />
            <Array as="points">
              <mxPoint x="350" y="660" />
              <mxPoint x="350" y="730" />
            </Array>
          </mxGeometry>
        </mxCell>
        <mxCell id="Bwary4bIyScAKnWDmXLR-12" value="" style="edgeLabel;resizable=0;html=1;align=left;verticalAlign=top;labelBackgroundColor=none;strokeColor=#FFFA91;fillColor=#FFFA91;" connectable="0" vertex="1" parent="Bwary4bIyScAKnWDmXLR-11">
          <mxGeometry x="-1" relative="1" as="geometry" />
        </mxCell>
        <mxCell id="Bwary4bIyScAKnWDmXLR-13" value="" style="edgeLabel;resizable=0;html=1;align=right;verticalAlign=top;labelBackgroundColor=none;strokeColor=#FFFA91;fillColor=#FFFA91;" connectable="0" vertex="1" parent="Bwary4bIyScAKnWDmXLR-11">
          <mxGeometry x="1" relative="1" as="geometry" />
        </mxCell>
      </root>
    </mxGraphModel>
  </diagram>
  <diagram name="Page-5" id="oAVr2wJaTe56mz0dyhSu">
    <mxGraphModel dx="1422" dy="706" grid="1" gridSize="10" guides="1" tooltips="1" connect="1" arrows="1" fold="1" page="1" pageScale="1" pageWidth="1169" pageHeight="1654" math="0" shadow="0">
      <root>
        <mxCell id="hlyZBd8Xk0nL4X6SG_Wc-0" />
        <mxCell id="hlyZBd8Xk0nL4X6SG_Wc-1" parent="hlyZBd8Xk0nL4X6SG_Wc-0" />
        <mxCell id="5uxvxBDCG4OyfPJcM9Qo-0" value="" style="endArrow=none;endFill=1;endSize=12;html=1;rounded=0;fontFamily=Helvetica;startArrow=none;fontStyle=1;align=center;" edge="1" parent="hlyZBd8Xk0nL4X6SG_Wc-1">
          <mxGeometry width="160" relative="1" as="geometry">
            <mxPoint x="165" y="340" as="sourcePoint" />
            <mxPoint x="165" y="340" as="targetPoint" />
          </mxGeometry>
        </mxCell>
        <mxCell id="5uxvxBDCG4OyfPJcM9Qo-1" value="&lt;font style=&quot;vertical-align: inherit&quot;&gt;&lt;font style=&quot;vertical-align: inherit&quot;&gt;&lt;font style=&quot;vertical-align: inherit&quot;&gt;&lt;font style=&quot;vertical-align: inherit&quot;&gt;&lt;font style=&quot;vertical-align: inherit&quot;&gt;&lt;font style=&quot;vertical-align: inherit&quot;&gt;&lt;font style=&quot;vertical-align: inherit&quot;&gt;&lt;font style=&quot;vertical-align: inherit&quot;&gt;&lt;font style=&quot;vertical-align: inherit&quot;&gt;&lt;font style=&quot;vertical-align: inherit&quot;&gt;&lt;font style=&quot;vertical-align: inherit&quot;&gt;&lt;font style=&quot;vertical-align: inherit&quot;&gt;技术支持前端&lt;/font&gt;&lt;/font&gt;&lt;/font&gt;&lt;/font&gt;&lt;/font&gt;&lt;/font&gt;&lt;/font&gt;&lt;/font&gt;&lt;/font&gt;&lt;/font&gt;&lt;/font&gt;&lt;/font&gt;" style="shape=umlLifeline;perimeter=lifelinePerimeter;whiteSpace=wrap;html=1;container=1;collapsible=0;recursiveResize=0;outlineConnect=0;" vertex="1" parent="hlyZBd8Xk0nL4X6SG_Wc-1">
          <mxGeometry x="50" y="67.5" width="100" height="462.5" as="geometry" />
        </mxCell>
        <mxCell id="5uxvxBDCG4OyfPJcM9Qo-2" value="" style="html=1;points=[];perimeter=orthogonalPerimeter;fontFamily=Helvetica;fontStyle=1;align=center;rounded=0;" vertex="1" parent="5uxvxBDCG4OyfPJcM9Qo-1">
          <mxGeometry x="45" y="132.5" width="10" height="257.5" as="geometry" />
        </mxCell>
        <mxCell id="5uxvxBDCG4OyfPJcM9Qo-3" style="edgeStyle=orthogonalEdgeStyle;rounded=0;orthogonalLoop=1;jettySize=auto;html=1;exitX=0.5;exitY=1;exitDx=0;exitDy=0;exitPerimeter=0;" edge="1" parent="hlyZBd8Xk0nL4X6SG_Wc-1">
          <mxGeometry relative="1" as="geometry">
            <mxPoint x="459" y="325" as="sourcePoint" />
            <mxPoint x="459" y="325" as="targetPoint" />
          </mxGeometry>
        </mxCell>
        <mxCell id="5uxvxBDCG4OyfPJcM9Qo-4" value="&lt;font style=&quot;vertical-align: inherit&quot;&gt;&lt;font style=&quot;vertical-align: inherit&quot;&gt;&lt;font style=&quot;vertical-align: inherit&quot;&gt;&lt;font style=&quot;vertical-align: inherit&quot;&gt;&lt;font style=&quot;vertical-align: inherit&quot;&gt;&lt;font style=&quot;vertical-align: inherit&quot;&gt;DMS/PC-BEFF服务&lt;/font&gt;&lt;/font&gt;&lt;/font&gt;&lt;/font&gt;&lt;/font&gt;&lt;/font&gt;" style="shape=umlLifeline;perimeter=lifelinePerimeter;whiteSpace=wrap;html=1;container=1;collapsible=0;recursiveResize=0;outlineConnect=0;" vertex="1" parent="hlyZBd8Xk0nL4X6SG_Wc-1">
          <mxGeometry x="230" y="67.5" width="110" height="472.5" as="geometry" />
        </mxCell>
        <mxCell id="5uxvxBDCG4OyfPJcM9Qo-5" value="" style="html=1;points=[];perimeter=orthogonalPerimeter;fontFamily=Helvetica;fontStyle=1;align=center;rounded=0;" vertex="1" parent="5uxvxBDCG4OyfPJcM9Qo-4">
          <mxGeometry x="50" y="130" width="10" height="230" as="geometry" />
        </mxCell>
        <mxCell id="5uxvxBDCG4OyfPJcM9Qo-7" value="技术支持聚合服务" style="shape=umlLifeline;perimeter=lifelinePerimeter;whiteSpace=wrap;html=1;container=1;collapsible=0;recursiveResize=0;outlineConnect=0;" vertex="1" parent="hlyZBd8Xk0nL4X6SG_Wc-1">
          <mxGeometry x="410" y="67.5" width="100" height="472.5" as="geometry" />
        </mxCell>
        <mxCell id="5uxvxBDCG4OyfPJcM9Qo-8" value="" style="html=1;verticalAlign=bottom;endArrow=block;rounded=0;" edge="1" parent="5uxvxBDCG4OyfPJcM9Qo-7">
          <mxGeometry width="80" relative="1" as="geometry">
            <mxPoint x="-120" y="170" as="sourcePoint" />
            <mxPoint x="46.5" y="170" as="targetPoint" />
            <Array as="points">
              <mxPoint x="46.5" y="170" />
            </Array>
          </mxGeometry>
        </mxCell>
        <mxCell id="5uxvxBDCG4OyfPJcM9Qo-9" value="" style="html=1;points=[];perimeter=orthogonalPerimeter;fontFamily=Helvetica;fontStyle=1;align=center;rounded=0;" vertex="1" parent="5uxvxBDCG4OyfPJcM9Qo-7">
          <mxGeometry x="45" y="170" width="10" height="160" as="geometry" />
        </mxCell>
        <mxCell id="5uxvxBDCG4OyfPJcM9Qo-11" value="" style="edgeStyle=segmentEdgeStyle;endArrow=classic;html=1;rounded=0;exitX=0.9;exitY=0;exitDx=0;exitDy=0;exitPerimeter=0;" edge="1" parent="5uxvxBDCG4OyfPJcM9Qo-7">
          <mxGeometry width="50" height="50" relative="1" as="geometry">
            <mxPoint x="55.00000000000023" y="170" as="sourcePoint" />
            <mxPoint x="65" y="190" as="targetPoint" />
            <Array as="points">
              <mxPoint x="101" y="170" />
              <mxPoint x="101" y="190" />
            </Array>
          </mxGeometry>
        </mxCell>
        <mxCell id="5uxvxBDCG4OyfPJcM9Qo-12" value="" style="html=1;points=[];perimeter=orthogonalPerimeter;" vertex="1" parent="5uxvxBDCG4OyfPJcM9Qo-7">
          <mxGeometry x="55" y="190" width="10" height="12.5" as="geometry" />
        </mxCell>
        <mxCell id="5uxvxBDCG4OyfPJcM9Qo-13" value="&lt;font style=&quot;vertical-align: inherit&quot;&gt;&lt;font style=&quot;vertical-align: inherit&quot;&gt;&lt;font style=&quot;vertical-align: inherit&quot;&gt;&lt;font style=&quot;vertical-align: inherit&quot;&gt;质量反馈跟踪原子服务&lt;/font&gt;&lt;/font&gt;&lt;/font&gt;&lt;/font&gt;" style="shape=umlLifeline;perimeter=lifelinePerimeter;whiteSpace=wrap;html=1;container=1;collapsible=0;recursiveResize=0;outlineConnect=0;" vertex="1" parent="hlyZBd8Xk0nL4X6SG_Wc-1">
          <mxGeometry x="590" y="67.5" width="100" height="472.5" as="geometry" />
        </mxCell>
        <mxCell id="5uxvxBDCG4OyfPJcM9Qo-14" value="" style="html=1;points=[];perimeter=orthogonalPerimeter;fontFamily=Helvetica;fontStyle=1;align=center;rounded=0;" vertex="1" parent="5uxvxBDCG4OyfPJcM9Qo-13">
          <mxGeometry x="45" y="232.5" width="10" height="117.5" as="geometry" />
        </mxCell>
        <mxCell id="5uxvxBDCG4OyfPJcM9Qo-15" value="" style="edgeStyle=segmentEdgeStyle;endArrow=classic;html=1;rounded=0;exitX=0.9;exitY=0;exitDx=0;exitDy=0;exitPerimeter=0;entryX=0.9;entryY=0;entryDx=0;entryDy=0;entryPerimeter=0;" edge="1" parent="5uxvxBDCG4OyfPJcM9Qo-13">
          <mxGeometry width="50" height="50" relative="1" as="geometry">
            <mxPoint x="55.00000000000003" y="232.5" as="sourcePoint" />
            <mxPoint x="65.00000000000003" y="252.5" as="targetPoint" />
            <Array as="points">
              <mxPoint x="101.00000000000003" y="232.5" />
              <mxPoint x="101.00000000000003" y="252.5" />
            </Array>
          </mxGeometry>
        </mxCell>
        <mxCell id="5uxvxBDCG4OyfPJcM9Qo-16" value="" style="html=1;points=[];perimeter=orthogonalPerimeter;" vertex="1" parent="5uxvxBDCG4OyfPJcM9Qo-13">
          <mxGeometry x="55" y="252.5" width="10" height="27.5" as="geometry" />
        </mxCell>
        <mxCell id="5uxvxBDCG4OyfPJcM9Qo-18" value="" style="html=1;verticalAlign=bottom;endArrow=block;rounded=0;exitX=0.5;exitY=0;exitDx=0;exitDy=0;exitPerimeter=0;" edge="1" parent="hlyZBd8Xk0nL4X6SG_Wc-1" source="5uxvxBDCG4OyfPJcM9Qo-2">
          <mxGeometry width="80" relative="1" as="geometry">
            <mxPoint x="110" y="200" as="sourcePoint" />
            <mxPoint x="280" y="200" as="targetPoint" />
            <Array as="points">
              <mxPoint x="270" y="200" />
            </Array>
          </mxGeometry>
        </mxCell>
        <mxCell id="5uxvxBDCG4OyfPJcM9Qo-19" value="&lt;font style=&quot;vertical-align: inherit&quot;&gt;&lt;font style=&quot;vertical-align: inherit&quot;&gt;&amp;nbsp; &amp;nbsp; &amp;nbsp; &amp;nbsp; &amp;nbsp; &amp;nbsp;1.EDER制造FTR&lt;/font&gt;&lt;/font&gt;" style="text;html=1;align=center;verticalAlign=middle;resizable=0;points=[];autosize=1;strokeColor=none;fillColor=none;" vertex="1" parent="hlyZBd8Xk0nL4X6SG_Wc-1">
          <mxGeometry x="110" y="180" width="140" height="20" as="geometry" />
        </mxCell>
        <mxCell id="5uxvxBDCG4OyfPJcM9Qo-20" value="&lt;font style=&quot;vertical-align: inherit&quot;&gt;&lt;font style=&quot;vertical-align: inherit&quot;&gt;&lt;font style=&quot;vertical-align: inherit&quot;&gt;&lt;font style=&quot;vertical-align: inherit&quot;&gt;&lt;font style=&quot;vertical-align: inherit&quot;&gt;&lt;font style=&quot;vertical-align: inherit&quot;&gt;&lt;font style=&quot;vertical-align: inherit&quot;&gt;&lt;font style=&quot;vertical-align: inherit&quot;&gt;&lt;font style=&quot;vertical-align: inherit&quot;&gt;&lt;font style=&quot;vertical-align: inherit&quot;&gt;1.1.2.1 生成FTR()&lt;/font&gt;&lt;/font&gt;&lt;/font&gt;&lt;/font&gt;&lt;/font&gt;&lt;/font&gt;&lt;/font&gt;&lt;/font&gt;&lt;/font&gt;&lt;/font&gt;" style="text;html=1;align=center;verticalAlign=middle;resizable=0;points=[];autosize=1;strokeColor=none;fillColor=none;" vertex="1" parent="hlyZBd8Xk0nL4X6SG_Wc-1">
          <mxGeometry x="660" y="280" width="110" height="20" as="geometry" />
        </mxCell>
        <mxCell id="5uxvxBDCG4OyfPJcM9Qo-21" value="" style="html=1;verticalAlign=bottom;endArrow=block;rounded=0;entryX=-0.01;entryY=-0.004;entryDx=0;entryDy=0;entryPerimeter=0;exitX=0.96;exitY=0.376;exitDx=0;exitDy=0;exitPerimeter=0;" edge="1" parent="hlyZBd8Xk0nL4X6SG_Wc-1" source="5uxvxBDCG4OyfPJcM9Qo-9" target="5uxvxBDCG4OyfPJcM9Qo-14">
          <mxGeometry width="80" relative="1" as="geometry">
            <mxPoint x="470" y="300" as="sourcePoint" />
            <mxPoint x="630" y="250" as="targetPoint" />
            <Array as="points" />
          </mxGeometry>
        </mxCell>
        <mxCell id="5uxvxBDCG4OyfPJcM9Qo-22" value="&lt;font style=&quot;vertical-align: inherit&quot;&gt;&lt;font style=&quot;vertical-align: inherit&quot;&gt;&lt;font style=&quot;vertical-align: inherit&quot;&gt;&lt;font style=&quot;vertical-align: inherit&quot;&gt;1.1 调用议案聚合制造FTR&lt;/font&gt;&lt;/font&gt;&lt;/font&gt;&lt;/font&gt;" style="text;html=1;align=center;verticalAlign=middle;resizable=0;points=[];autosize=1;strokeColor=none;fillColor=none;" vertex="1" parent="hlyZBd8Xk0nL4X6SG_Wc-1">
          <mxGeometry x="290" y="220" width="150" height="20" as="geometry" />
        </mxCell>
        <mxCell id="5uxvxBDCG4OyfPJcM9Qo-23" value="&lt;font style=&quot;vertical-align: inherit&quot;&gt;&lt;font style=&quot;vertical-align: inherit&quot;&gt;&lt;font style=&quot;vertical-align: inherit&quot;&gt;&lt;font style=&quot;vertical-align: inherit&quot;&gt;1.1.2 生成FTR()&lt;/font&gt;&lt;/font&gt;&lt;/font&gt;&lt;/font&gt;" style="text;html=1;align=center;verticalAlign=middle;resizable=0;points=[];autosize=1;strokeColor=none;fillColor=none;" vertex="1" parent="hlyZBd8Xk0nL4X6SG_Wc-1">
          <mxGeometry x="500" y="280" width="100" height="20" as="geometry" />
        </mxCell>
        <mxCell id="5uxvxBDCG4OyfPJcM9Qo-24" value="&lt;font style=&quot;vertical-align: inherit&quot;&gt;&lt;font style=&quot;vertical-align: inherit&quot;&gt;&lt;font style=&quot;vertical-align: inherit&quot;&gt;&lt;font style=&quot;vertical-align: inherit&quot;&gt;&lt;font style=&quot;vertical-align: inherit&quot;&gt;&lt;font style=&quot;vertical-align: inherit&quot;&gt;&lt;font style=&quot;vertical-align: inherit&quot;&gt;&lt;font style=&quot;vertical-align: inherit&quot;&gt;&lt;font style=&quot;vertical-align: inherit&quot;&gt;&lt;font style=&quot;vertical-align: inherit&quot;&gt;&lt;font style=&quot;vertical-align: inherit&quot;&gt;&lt;font style=&quot;vertical-align: inherit&quot;&gt;&lt;font style=&quot;vertical-align: inherit&quot;&gt;&lt;font style=&quot;vertical-align: inherit&quot;&gt;&lt;font style=&quot;vertical-align: inherit&quot;&gt;&lt;font style=&quot;vertical-align: inherit&quot;&gt;议案行为设计图&lt;/font&gt;&lt;/font&gt;&lt;/font&gt;&lt;/font&gt;&lt;/font&gt;&lt;/font&gt;&lt;/font&gt;&lt;/font&gt;&lt;/font&gt;&lt;/font&gt;&lt;/font&gt;&lt;/font&gt;&lt;/font&gt;&lt;/font&gt;&lt;/font&gt;&lt;/font&gt;" style="shape=umlFrame;whiteSpace=wrap;html=1;width=140;height=30;" vertex="1" parent="hlyZBd8Xk0nL4X6SG_Wc-1">
          <mxGeometry width="920" height="590" as="geometry" />
        </mxCell>
        <mxCell id="5uxvxBDCG4OyfPJcM9Qo-25" value="1.1.1带入议案信息()" style="text;html=1;align=center;verticalAlign=middle;resizable=0;points=[];autosize=1;strokeColor=none;fillColor=none;" vertex="1" parent="hlyZBd8Xk0nL4X6SG_Wc-1">
          <mxGeometry x="475" y="220" width="120" height="20" as="geometry" />
        </mxCell>
        <mxCell id="5uxvxBDCG4OyfPJcM9Qo-26" value="&lt;font style=&quot;vertical-align: inherit&quot;&gt;&lt;font style=&quot;vertical-align: inherit&quot;&gt;&lt;font style=&quot;vertical-align: inherit&quot;&gt;&lt;font style=&quot;vertical-align: inherit&quot;&gt;MQ消息服务&lt;/font&gt;&lt;/font&gt;&lt;/font&gt;&lt;/font&gt;" style="shape=umlLifeline;perimeter=lifelinePerimeter;whiteSpace=wrap;html=1;container=1;collapsible=0;recursiveResize=0;outlineConnect=0;" vertex="1" parent="hlyZBd8Xk0nL4X6SG_Wc-1">
          <mxGeometry x="810" y="67.5" width="100" height="472.5" as="geometry" />
        </mxCell>
        <mxCell id="5uxvxBDCG4OyfPJcM9Qo-27" value="" style="html=1;points=[];perimeter=orthogonalPerimeter;fontFamily=Helvetica;fontStyle=1;align=center;rounded=0;" vertex="1" parent="5uxvxBDCG4OyfPJcM9Qo-26">
          <mxGeometry x="45" y="300" width="10" height="40" as="geometry" />
        </mxCell>
        <mxCell id="5uxvxBDCG4OyfPJcM9Qo-31" value="" style="endArrow=classic;html=1;rounded=0;exitX=0.043;exitY=1.165;exitDx=0;exitDy=0;exitPerimeter=0;" edge="1" parent="hlyZBd8Xk0nL4X6SG_Wc-1" source="5uxvxBDCG4OyfPJcM9Qo-32">
          <mxGeometry width="50" height="50" relative="1" as="geometry">
            <mxPoint x="650" y="370" as="sourcePoint" />
            <mxPoint x="854.5" y="370" as="targetPoint" />
          </mxGeometry>
        </mxCell>
        <mxCell id="5uxvxBDCG4OyfPJcM9Qo-32" value="1.1.2.2推送至事件总线MQ,下发到FTR()" style="text;html=1;align=center;verticalAlign=middle;resizable=0;points=[];autosize=1;strokeColor=none;fillColor=none;" vertex="1" parent="hlyZBd8Xk0nL4X6SG_Wc-1">
          <mxGeometry x="635" y="347.5" width="230" height="20" as="geometry" />
        </mxCell>
      </root>
    </mxGraphModel>
  </diagram>
</mxfile>
